<?xml version="1.0" encoding="utf-8" standalone="no"?>
<!DOCTYPE svg PUBLIC "-//W3C//DTD SVG 1.1//EN"
  "http://www.w3.org/Graphics/SVG/1.1/DTD/svg11.dtd">
<!-- Created with matplotlib (https://matplotlib.org/) -->
<svg height="384.083437pt" version="1.1" viewBox="0 0 729.66875 384.083437" width="729.66875pt" xmlns="http://www.w3.org/2000/svg" xmlns:xlink="http://www.w3.org/1999/xlink">
 <defs>
  <style type="text/css">
*{stroke-linecap:butt;stroke-linejoin:round;}
  </style>
 </defs>
 <g id="figure_1">
  <g id="patch_1">
   <path d="M -0 384.083437 
L 729.66875 384.083437 
L 729.66875 0 
L -0 0 
z
" style="fill:#ffffff;"/>
  </g>
  <g id="axes_1">
   <g id="patch_2">
    <path d="M 52.86875 347.367812 
L 722.46875 347.367812 
L 722.46875 21.207812 
L 52.86875 21.207812 
z
" style="fill:#ffffff;"/>
   </g>
   <g id="patch_3">
    <path clip-path="url(#p64385d5524)" d="M 83.305114 347.367812 
L 154.920087 347.367812 
L 154.920087 36.739241 
L 83.305114 36.739241 
z
" style="fill:#1f77b4;"/>
   </g>
   <g id="patch_4">
    <path clip-path="url(#p64385d5524)" d="M 172.82383 347.367812 
L 244.438803 347.367812 
L 244.438803 132.49461 
L 172.82383 132.49461 
z
" style="fill:#1f77b4;"/>
   </g>
   <g id="patch_5">
    <path clip-path="url(#p64385d5524)" d="M 262.342547 347.367812 
L 333.95752 347.367812 
L 333.95752 306.560348 
L 262.342547 306.560348 
z
" style="fill:#1f77b4;"/>
   </g>
   <g id="patch_6">
    <path clip-path="url(#p64385d5524)" d="M 351.861263 347.367812 
L 423.476237 347.367812 
L 423.476237 339.605941 
L 351.861263 339.605941 
z
" style="fill:#1f77b4;"/>
   </g>
   <g id="patch_7">
    <path clip-path="url(#p64385d5524)" d="M 441.37998 347.367812 
L 512.994953 347.367812 
L 512.994953 346.676161 
L 441.37998 346.676161 
z
" style="fill:#1f77b4;"/>
   </g>
   <g id="patch_8">
    <path clip-path="url(#p64385d5524)" d="M 530.898697 347.367812 
L 602.51367 347.367812 
L 602.51367 345.139156 
L 530.898697 345.139156 
z
" style="fill:#1f77b4;"/>
   </g>
   <g id="patch_9">
    <path clip-path="url(#p64385d5524)" d="M 620.417413 347.367812 
L 692.032386 347.367812 
L 692.032386 346.59931 
L 620.417413 346.59931 
z
" style="fill:#1f77b4;"/>
   </g>
   <g id="matplotlib.axis_1">
    <g id="xtick_1">
     <g id="line2d_1">
      <defs>
       <path d="M 0 0 
L 0 3.5 
" id="m07e48310dd" style="stroke:#000000;stroke-width:0.8;"/>
      </defs>
      <g>
       <use style="stroke:#000000;stroke-width:0.8;" x="119.1126" xlink:href="#m07e48310dd" y="347.367812"/>
      </g>
     </g>
     <g id="text_1">
      <!-- 国营或国有控股 -->
      <defs>
       <path d="M 58.203125 28.515625 
Q 61.328125 30.859375 64.0625 32.421875 
Q 65.625 30.859375 71.09375 24.609375 
Q 67.578125 22.65625 64.84375 20.703125 
Q 63.671875 22.265625 58.203125 28.515625 
z
M 28.125 59.375 
Q 33.984375 58.984375 41.015625 58.984375 
L 62.5 58.984375 
Q 68.359375 58.984375 74.609375 59.375 
L 74.609375 53.125 
Q 68.75 53.515625 62.5 53.515625 
L 53.515625 53.515625 
L 53.515625 41.015625 
L 60.15625 41.015625 
Q 66.796875 41.015625 72.65625 41.40625 
L 72.65625 35.15625 
Q 66.796875 35.546875 60.15625 35.546875 
L 53.515625 35.546875 
L 53.515625 18.359375 
L 63.671875 18.359375 
Q 70.3125 18.359375 76.5625 18.75 
L 76.5625 12.5 
Q 70.703125 12.890625 63.671875 12.890625 
L 38.28125 12.890625 
Q 32.03125 12.890625 25.78125 12.5 
L 25.78125 18.75 
Q 32.03125 18.359375 38.28125 18.359375 
L 46.484375 18.359375 
L 46.484375 35.546875 
L 41.40625 35.546875 
Q 34.765625 35.546875 29.296875 35.15625 
L 29.296875 41.40625 
Q 34.765625 41.015625 41.40625 41.015625 
L 46.484375 41.015625 
L 46.484375 53.515625 
L 41.015625 53.515625 
Q 33.984375 53.515625 28.125 53.125 
z
M 19.53125 69.53125 
L 19.53125 2.34375 
L 82.421875 2.34375 
L 82.421875 69.53125 
z
M 12.109375 75 
L 89.84375 75 
Q 89.453125 65.625 89.453125 54.296875 
L 89.453125 14.453125 
Q 89.453125 2.734375 89.84375 -8.203125 
L 82.421875 -8.203125 
L 82.421875 -3.125 
L 19.53125 -3.125 
L 19.53125 -8.984375 
L 12.109375 -8.984375 
Q 12.5 2.734375 12.5 14.84375 
L 12.5 54.296875 
Q 12.5 65.234375 12.109375 75 
z
" id="SimHei-22269"/>
       <path d="M 32.03125 79.296875 
L 40.234375 79.296875 
Q 39.84375 74.609375 39.84375 70.703125 
L 60.546875 70.703125 
Q 60.546875 74.21875 60.15625 79.6875 
L 68.359375 79.6875 
Q 67.96875 75 67.96875 70.703125 
L 78.515625 70.703125 
Q 85.9375 70.703125 92.96875 71.09375 
L 92.96875 64.453125 
Q 87.109375 64.84375 78.515625 64.84375 
L 67.96875 64.84375 
Q 67.96875 62.5 68.359375 57.03125 
L 60.546875 57.03125 
L 60.546875 64.84375 
L 39.84375 64.84375 
L 39.84375 57.03125 
L 32.03125 57.03125 
Q 32.421875 62.109375 32.421875 64.84375 
L 23.046875 64.84375 
Q 15.234375 64.84375 7.03125 64.453125 
L 7.03125 71.09375 
Q 15.234375 70.703125 23.046875 70.703125 
L 32.421875 70.703125 
Q 32.421875 74.21875 32.03125 79.296875 
z
M 91.796875 53.515625 
Q 91.40625 49.609375 91.40625 45.5 
Q 91.40625 41.40625 91.796875 37.109375 
L 83.984375 37.109375 
L 83.984375 47.65625 
L 16.40625 47.65625 
L 16.40625 35.546875 
L 8.59375 35.546875 
Q 8.984375 39.0625 8.984375 43.546875 
Q 8.984375 48.046875 8.59375 53.515625 
z
M 32.421875 35.9375 
L 32.421875 27.34375 
L 67.578125 27.34375 
L 67.578125 35.9375 
z
M 26.5625 10.15625 
L 26.5625 1.171875 
L 74.609375 1.171875 
L 74.609375 10.15625 
z
M 25.390625 41.796875 
L 75 41.796875 
Q 74.609375 37.109375 74.609375 31.828125 
Q 74.609375 26.5625 75 21.484375 
L 25.390625 21.484375 
Q 25.78125 26.5625 25.78125 31.828125 
Q 25.78125 37.109375 25.390625 41.796875 
z
M 18.75 16.015625 
L 82.8125 16.015625 
Q 82.421875 9.765625 82.421875 3.90625 
Q 82.421875 -1.953125 82.8125 -8.984375 
L 74.609375 -8.984375 
L 74.609375 -4.6875 
L 26.5625 -4.6875 
L 26.5625 -10.15625 
L 18.75 -10.15625 
Q 19.140625 -4.296875 19.140625 2.921875 
Q 19.140625 10.15625 18.75 16.015625 
z
" id="SimHei-33829"/>
       <path d="M 68.75 75 
Q 70.703125 76.953125 75 79.296875 
Q 81.640625 71.09375 83.203125 69.140625 
Q 79.6875 67.1875 76.953125 64.84375 
Q 75.390625 67.1875 68.75 75 
z
M 5.078125 62.5 
Q 12.890625 62.109375 21.09375 62.109375 
L 51.953125 62.109375 
Q 51.953125 72.65625 51.171875 79.6875 
Q 55.859375 79.296875 60.15625 78.515625 
Q 59.375 72.65625 59.375 62.109375 
L 75.78125 62.109375 
Q 82.421875 62.109375 92.1875 62.5 
L 92.1875 55.859375 
Q 82.421875 56.25 75.78125 56.25 
L 59.375 56.25 
Q 59.375 48.4375 61.328125 38.671875 
Q 63.28125 28.90625 66.796875 20.3125 
Q 72.65625 32.421875 74.609375 46.484375 
Q 78.90625 44.921875 83.203125 44.140625 
Q 80.46875 35.9375 77.921875 28.515625 
Q 75.390625 21.09375 71.484375 13.28125 
Q 83.203125 -1.5625 84.953125 1.75 
Q 86.71875 5.078125 87.109375 9.765625 
Q 89.0625 7.421875 91.015625 6.046875 
Q 92.96875 4.6875 95.703125 4.296875 
Q 91.015625 -9.765625 84.171875 -8 
Q 77.34375 -6.25 66.796875 7.03125 
Q 62.890625 3.515625 58.390625 -0.578125 
Q 53.90625 -4.6875 45.703125 -8.984375 
Q 42.578125 -5.46875 38.671875 -3.125 
Q 48.4375 0.390625 53.3125 4.296875 
Q 58.203125 8.203125 62.5 13.28125 
Q 58.984375 18.75 56.4375 28.515625 
Q 53.90625 38.28125 51.953125 56.25 
L 21.484375 56.25 
Q 12.890625 56.25 5.078125 55.859375 
z
M 19.921875 41.015625 
L 19.921875 25 
L 36.71875 25 
L 36.71875 41.015625 
z
M 12.109375 46.875 
L 44.53125 46.875 
Q 44.140625 41.796875 44.140625 33.78125 
Q 44.140625 25.78125 44.53125 19.140625 
L 12.109375 19.140625 
Q 12.5 26.5625 12.5 34.171875 
Q 12.5 41.796875 12.109375 46.875 
z
M 5.078125 6.25 
Q 10.546875 6.640625 20.5 8.203125 
Q 30.46875 9.765625 48.828125 13.671875 
Q 48.046875 10.9375 47.65625 6.640625 
Q 34.765625 4.296875 27.921875 2.734375 
Q 21.09375 1.171875 8.203125 -2.34375 
Q 6.640625 1.953125 5.078125 6.25 
z
" id="SimHei-25110"/>
       <path d="M 35.15625 44.53125 
L 35.15625 33.59375 
L 72.65625 33.59375 
L 72.65625 44.53125 
z
M 35.15625 27.34375 
L 35.15625 17.578125 
L 72.65625 17.578125 
L 72.65625 27.34375 
z
M 12.109375 19.140625 
Q 10.15625 21.875 5.46875 25.390625 
Q 13.28125 30.46875 21.484375 40.03125 
Q 29.6875 49.609375 35.546875 60.9375 
L 22.65625 60.9375 
Q 18.75 60.9375 11.328125 60.546875 
L 11.328125 67.96875 
Q 19.53125 67.578125 24.21875 67.578125 
L 37.890625 67.578125 
Q 39.0625 71.875 39.453125 74.796875 
Q 39.84375 77.734375 40.234375 80.859375 
Q 41.796875 80.46875 44.53125 80.265625 
Q 47.265625 80.078125 50.390625 79.296875 
Q 48.828125 78.515625 46.09375 67.578125 
L 75.78125 67.578125 
Q 81.640625 67.578125 88.671875 67.96875 
L 88.671875 60.546875 
Q 81.640625 60.9375 77.34375 60.9375 
L 44.140625 60.9375 
Q 41.796875 55.859375 39.0625 50.78125 
L 80.859375 50.78125 
Q 80.46875 41.015625 80.46875 33.203125 
L 80.46875 1.5625 
Q 80.46875 -3.90625 77.34375 -6.4375 
Q 74.21875 -8.984375 65.234375 -9.765625 
Q 64.84375 -5.46875 62.5 -0.390625 
Q 67.96875 -1.171875 70.3125 -0.78125 
Q 72.65625 -0.390625 72.65625 3.515625 
L 72.65625 11.328125 
L 35.15625 11.328125 
L 35.15625 -9.375 
L 26.953125 -9.375 
Q 27.34375 0.390625 27.34375 7.421875 
L 27.34375 34.375 
Q 20.3125 26.171875 12.109375 19.140625 
z
" id="SimHei-26377"/>
       <path d="M 17.578125 25 
Q 14.453125 23.828125 6.640625 19.53125 
Q 5.859375 25 3.90625 28.515625 
Q 11.71875 30.46875 17.578125 32.421875 
L 17.578125 51.171875 
L 14.84375 51.171875 
Q 8.984375 51.171875 5.46875 50.78125 
L 5.46875 57.8125 
Q 8.984375 57.421875 14.84375 57.421875 
L 17.578125 57.421875 
L 17.578125 66.015625 
Q 17.578125 72.65625 16.796875 78.90625 
L 25.78125 78.90625 
Q 25 74.21875 25 67.578125 
L 25 57.421875 
Q 29.296875 57.421875 33.59375 57.8125 
L 33.59375 50.78125 
Q 29.296875 51.171875 25 51.171875 
L 25 35.15625 
Q 30.859375 37.890625 33.59375 39.0625 
Q 33.59375 37.5 33.984375 32.03125 
Q 29.296875 30.078125 25 28.125 
L 25 1.5625 
Q 24.609375 -6.640625 20.890625 -7.8125 
Q 17.1875 -8.984375 11.328125 -10.15625 
Q 10.15625 -3.90625 8.203125 -0.78125 
Q 14.453125 -1.5625 16.203125 -0.96875 
Q 17.96875 -0.390625 17.578125 3.90625 
z
M 37.5 51.171875 
Q 37.890625 55.078125 37.890625 58.984375 
Q 37.890625 62.890625 37.5 67.96875 
L 61.328125 67.96875 
Q 60.15625 72.265625 57.8125 77.734375 
Q 61.328125 78.515625 66.796875 79.6875 
Q 68.359375 74.609375 69.921875 67.96875 
L 94.921875 67.96875 
Q 94.53125 63.671875 94.53125 59.171875 
Q 94.53125 54.6875 94.921875 51.171875 
L 87.109375 51.171875 
L 87.109375 61.71875 
L 45.3125 61.71875 
L 45.3125 51.171875 
z
M 55.078125 55.078125 
Q 58.984375 52.34375 63.28125 50.390625 
Q 59.375 48.046875 55.65625 43.546875 
Q 51.953125 39.0625 44.53125 32.03125 
Q 41.40625 34.765625 38.28125 36.328125 
Q 48.046875 44.53125 55.078125 55.078125 
z
M 69.921875 50 
Q 72.265625 51.5625 76.171875 54.6875 
Q 89.0625 41.015625 92.1875 36.328125 
Q 90.234375 35.15625 85.546875 32.03125 
Q 75.390625 45.703125 69.921875 50 
z
M 40.234375 25.78125 
Q 44.53125 25.390625 51.5625 25.390625 
L 75.390625 25.390625 
Q 82.421875 25.390625 88.28125 25.78125 
L 88.28125 18.75 
Q 82.421875 19.140625 75.78125 19.140625 
L 67.96875 19.140625 
L 67.96875 0.390625 
L 81.25 0.390625 
Q 88.28125 0.390625 95.3125 1.171875 
L 95.3125 -6.25 
Q 88.28125 -5.859375 82.03125 -5.859375 
L 49.609375 -5.859375 
Q 40.234375 -5.859375 35.546875 -6.25 
L 35.546875 1.171875 
Q 40.234375 0.390625 48.4375 0.390625 
L 60.9375 0.390625 
L 60.9375 19.140625 
L 51.953125 19.140625 
Q 44.921875 19.140625 40.234375 18.359375 
z
" id="SimHei-25511"/>
       <path d="M 82.03125 75 
Q 81.640625 71.484375 81.640625 66.796875 
L 81.640625 57.421875 
Q 81.25 52.34375 86.328125 52.34375 
L 94.53125 52.734375 
Q 93.359375 49.609375 92.96875 46.09375 
L 83.203125 46.09375 
Q 74.609375 46.09375 74.609375 53.125 
L 74.609375 68.75 
L 62.109375 68.75 
Q 62.109375 59.765625 59.953125 53.90625 
Q 57.8125 48.046875 51.171875 42.96875 
Q 49.609375 46.09375 45.703125 48.4375 
Q 53.515625 53.125 54.296875 60.546875 
Q 55.078125 67.96875 54.6875 75 
z
M 95.3125 0.78125 
Q 91.796875 -2.734375 90.234375 -7.03125 
Q 83.59375 -5.078125 78.703125 -2.53125 
Q 73.828125 0 68.75 3.515625 
Q 63.671875 -0.78125 59.171875 -3.515625 
Q 54.6875 -6.25 50.78125 -8.59375 
Q 48.046875 -4.296875 44.921875 -1.953125 
Q 50 -0.390625 53.703125 1.5625 
Q 57.421875 3.515625 63.671875 8.203125 
Q 59.375 13.671875 56.4375 20.109375 
Q 53.515625 26.5625 51.953125 33.203125 
L 58.984375 33.203125 
Q 60.546875 26.171875 63.078125 21.484375 
Q 65.625 16.796875 68.75 13.28125 
Q 75.78125 21.484375 78.90625 33.203125 
L 61.328125 33.203125 
Q 55.078125 33.203125 48.828125 32.8125 
L 48.828125 39.84375 
Q 55.46875 39.453125 61.328125 39.453125 
L 88.28125 39.453125 
Q 86.71875 32.421875 82.8125 23.4375 
Q 78.90625 14.453125 73.828125 8.59375 
Q 77.734375 5.46875 83.203125 3.515625 
Q 88.671875 1.5625 95.3125 0.78125 
z
M 28.125 -7.8125 
Q 27.34375 -2.734375 25.390625 1.5625 
Q 30.859375 1.171875 33.390625 1.5625 
Q 35.9375 1.953125 35.9375 7.421875 
L 35.9375 25.390625 
L 21.484375 25.390625 
Q 20.3125 14.453125 18.546875 7.421875 
Q 16.796875 0.390625 12.890625 -7.8125 
Q 9.765625 -4.296875 5.859375 -2.734375 
Q 9.765625 3.125 11.90625 12.296875 
Q 14.0625 21.484375 14.25 33.203125 
Q 14.453125 44.921875 14.453125 57.03125 
Q 14.453125 69.140625 14.0625 75 
L 43.359375 75 
Q 42.96875 67.1875 42.96875 59.765625 
L 42.96875 4.296875 
Q 42.96875 -3.125 39.640625 -4.6875 
Q 36.328125 -6.25 28.125 -7.8125 
z
M 21.875 68.75 
L 21.875 53.515625 
L 35.9375 53.515625 
L 35.9375 68.75 
z
M 21.875 47.265625 
L 21.875 31.640625 
L 35.9375 31.640625 
L 35.9375 47.265625 
z
" id="SimHei-32929"/>
      </defs>
      <g transform="translate(84.1126 362.180312)scale(0.1 -0.1)">
       <use xlink:href="#SimHei-22269"/>
       <use x="100" xlink:href="#SimHei-33829"/>
       <use x="200" xlink:href="#SimHei-25110"/>
       <use x="300" xlink:href="#SimHei-22269"/>
       <use x="400" xlink:href="#SimHei-26377"/>
       <use x="500" xlink:href="#SimHei-25511"/>
       <use x="600" xlink:href="#SimHei-32929"/>
      </g>
     </g>
    </g>
    <g id="xtick_2">
     <g id="line2d_2">
      <g>
       <use style="stroke:#000000;stroke-width:0.8;" x="208.631317" xlink:href="#m07e48310dd" y="347.367812"/>
      </g>
     </g>
     <g id="text_2">
      <!-- 私营企业 -->
      <defs>
       <path d="M 6.25 50.78125 
Q 10.9375 50.390625 17.1875 50.390625 
L 25 50.390625 
L 25 66.015625 
Q 14.84375 64.84375 10.546875 63.671875 
Q 9.375 67.1875 7.421875 70.703125 
Q 14.84375 71.09375 26.75 72.84375 
Q 38.671875 74.609375 45.3125 76.953125 
Q 46.484375 73.046875 49.21875 68.75 
Q 45.3125 68.75 41.015625 68.15625 
Q 36.71875 67.578125 32.421875 66.796875 
L 32.421875 50.390625 
L 38.28125 50.390625 
Q 45.703125 50.390625 49.21875 50.78125 
L 49.21875 43.359375 
Q 45.703125 43.75 38.28125 43.75 
L 32.421875 43.75 
L 32.421875 3.90625 
Q 32.421875 -4.296875 32.8125 -8.984375 
L 24.609375 -8.984375 
Q 25 -4.296875 25 3.90625 
L 25 33.203125 
Q 22.265625 25.390625 18.15625 18.75 
Q 14.0625 12.109375 10.546875 6.640625 
Q 7.8125 10.9375 4.6875 12.890625 
Q 10.9375 19.140625 15.625 27.53125 
Q 20.3125 35.9375 22.65625 43.75 
L 17.1875 43.75 
Q 10.15625 43.75 6.25 43.359375 
z
M 33.203125 33.203125 
Q 36.328125 34.765625 39.0625 37.109375 
Q 45.703125 28.515625 48.828125 23.4375 
Q 44.921875 21.484375 42.1875 19.53125 
Q 40.625 23.046875 33.203125 33.203125 
z
M 66.40625 78.515625 
Q 71.484375 76.953125 78.125 75.78125 
Q 75.390625 73.046875 71.484375 59.765625 
Q 67.578125 46.484375 56.640625 10.15625 
Q 73.4375 12.5 82.421875 13.28125 
Q 80.859375 19.140625 72.65625 37.5 
Q 76.5625 38.671875 80.078125 40.625 
Q 84.765625 30.078125 88.859375 19.328125 
Q 92.96875 8.59375 94.921875 2.734375 
Q 90.625 1.171875 86.71875 -0.78125 
Q 85.546875 3.125 84.375 7.03125 
Q 70.3125 5.46875 61.328125 3.703125 
Q 52.34375 1.953125 48.046875 0 
Q 46.484375 4.6875 44.140625 8.984375 
Q 48.046875 10.546875 51.359375 18.546875 
Q 54.6875 26.5625 57.8125 38.078125 
Q 60.9375 49.609375 63.28125 60.9375 
Q 65.625 72.265625 66.40625 78.515625 
z
" id="SimHei-31169"/>
       <path d="M 46.09375 82.03125 
Q 49.21875 80.078125 56.640625 78.125 
L 54.296875 75 
Q 66.796875 55.859375 95.703125 48.4375 
Q 91.015625 45.3125 89.453125 39.453125 
Q 59.765625 51.953125 49.21875 70.3125 
Q 36.328125 51.5625 10.9375 38.671875 
Q 7.8125 43.75 4.296875 46.484375 
Q 22.65625 53.125 33.390625 64.640625 
Q 44.140625 76.171875 46.09375 82.03125 
z
M 91.40625 -5.078125 
Q 84.375 -4.6875 79.296875 -4.6875 
L 23.046875 -4.6875 
Q 17.1875 -4.6875 8.203125 -5.078125 
L 8.203125 2.34375 
Q 16.015625 1.953125 21.484375 1.953125 
L 25.390625 1.953125 
L 25.390625 26.5625 
Q 25.390625 31.25 25 38.671875 
L 33.984375 38.671875 
Q 33.203125 31.25 33.203125 26.5625 
L 33.203125 1.953125 
L 48.046875 1.953125 
L 48.046875 39.453125 
Q 48.046875 44.140625 47.65625 51.5625 
L 56.640625 51.5625 
Q 55.859375 44.53125 55.859375 33.203125 
L 67.96875 33.203125 
Q 74.21875 33.203125 81.25 33.59375 
L 81.25 26.171875 
Q 74.609375 26.5625 68.359375 26.5625 
L 55.859375 26.5625 
L 55.859375 1.953125 
L 79.6875 1.953125 
Q 84.375 1.953125 91.40625 2.34375 
z
" id="SimHei-20225"/>
       <path d="M 8.984375 55.859375 
Q 12.5 57.03125 16.796875 58.984375 
Q 21.875 46.875 29.296875 23.046875 
Q 25.390625 22.265625 21.09375 20.3125 
Q 14.453125 43.359375 8.984375 55.859375 
z
M 80.46875 59.765625 
Q 84.765625 58.203125 90.234375 56.640625 
Q 83.59375 42.96875 76.5625 19.140625 
Q 72.65625 21.484375 68.75 22.65625 
Q 76.171875 37.109375 80.46875 59.765625 
z
M 35.15625 60.15625 
Q 35.15625 68.359375 34.375 78.515625 
L 44.140625 78.515625 
Q 43.359375 67.578125 43.359375 59.765625 
L 43.359375 1.953125 
L 55.859375 1.953125 
L 55.859375 64.453125 
Q 55.859375 70.703125 55.078125 78.515625 
L 64.84375 78.515625 
Q 64.0625 72.265625 64.0625 65.234375 
L 64.0625 1.953125 
L 78.515625 1.953125 
Q 84.765625 1.953125 93.75 2.734375 
L 93.75 -5.859375 
Q 84.765625 -5.078125 78.90625 -5.078125 
L 21.875 -5.078125 
Q 16.015625 -5.078125 6.25 -5.859375 
L 6.25 2.734375 
Q 16.015625 1.953125 21.484375 1.953125 
L 35.15625 1.953125 
z
" id="SimHei-19994"/>
      </defs>
      <g transform="translate(188.631317 362.2975)scale(0.1 -0.1)">
       <use xlink:href="#SimHei-31169"/>
       <use x="100" xlink:href="#SimHei-33829"/>
       <use x="200" xlink:href="#SimHei-20225"/>
       <use x="300" xlink:href="#SimHei-19994"/>
      </g>
     </g>
    </g>
    <g id="xtick_3">
     <g id="line2d_3">
      <g>
       <use style="stroke:#000000;stroke-width:0.8;" x="298.150033" xlink:href="#m07e48310dd" y="347.367812"/>
      </g>
     </g>
     <g id="text_3">
      <!-- 中外合资 -->
      <defs>
       <path d="M 45.703125 61.328125 
Q 45.703125 71.09375 45.3125 80.859375 
L 53.90625 80.859375 
Q 53.515625 71.875 53.515625 61.328125 
L 85.9375 61.328125 
Q 85.546875 53.515625 85.546875 39.84375 
Q 85.546875 26.171875 85.9375 17.96875 
L 77.734375 17.96875 
L 77.734375 24.609375 
L 53.515625 24.609375 
L 53.515625 7.03125 
Q 53.515625 1.5625 53.90625 -8.203125 
L 44.921875 -8.203125 
Q 45.703125 0.390625 45.703125 7.03125 
L 45.703125 24.609375 
L 22.265625 24.609375 
L 22.265625 17.578125 
L 14.0625 17.578125 
Q 14.453125 25.390625 14.453125 39.84375 
Q 14.453125 54.296875 14.0625 61.328125 
z
M 22.265625 55.078125 
L 22.265625 30.859375 
L 45.703125 30.859375 
L 45.703125 55.078125 
z
M 53.515625 55.078125 
L 53.515625 30.859375 
L 77.34375 30.859375 
L 77.34375 55.078125 
z
" id="SimHei-20013"/>
       <path d="M 57.03125 79.6875 
L 65.625 79.6875 
Q 65.234375 73.4375 65.234375 67.1875 
L 65.234375 7.03125 
Q 65.234375 -0.390625 65.625 -8.203125 
L 57.03125 -8.203125 
Q 57.421875 -0.390625 57.421875 7.03125 
L 57.421875 67.1875 
Q 57.421875 73.4375 57.03125 79.6875 
z
M 68.359375 54.296875 
Q 71.875 56.25 75.390625 58.203125 
Q 78.515625 53.90625 84.375 45.3125 
Q 90.234375 36.71875 94.921875 29.296875 
Q 89.84375 26.953125 87.109375 24.609375 
Q 83.984375 31.25 78.515625 39.453125 
Q 73.046875 47.65625 68.359375 54.296875 
z
M 25 78.515625 
Q 29.296875 76.953125 34.375 75.78125 
Q 31.640625 72.265625 30.46875 68.75 
Q 29.296875 65.234375 27.734375 61.71875 
L 51.171875 61.71875 
Q 49.21875 47.65625 45.5 37.6875 
Q 41.796875 27.734375 36.90625 20.3125 
Q 32.03125 12.890625 25.96875 7.609375 
Q 19.921875 2.34375 13.28125 -2.34375 
Q 10.546875 1.171875 6.640625 3.125 
Q 15.625 8.59375 20.890625 13.078125 
Q 26.171875 17.578125 32.421875 26.5625 
Q 28.125 32.421875 21.484375 38.28125 
Q 25 40.234375 27.734375 43.359375 
Q 33.203125 37.109375 36.328125 33.59375 
Q 38.28125 37.109375 39.84375 42.96875 
Q 41.40625 48.828125 42.578125 55.078125 
L 25.390625 55.078125 
Q 23.046875 50 19.71875 43.75 
Q 16.40625 37.5 11.328125 31.25 
Q 8.59375 35.15625 5.46875 36.71875 
Q 10.9375 42.96875 14.453125 49.21875 
Q 17.96875 55.46875 20.5 62.296875 
Q 23.046875 69.140625 25 78.515625 
z
" id="SimHei-22806"/>
       <path d="M 46.09375 82.03125 
Q 50.78125 79.296875 55.46875 77.34375 
L 53.125 75 
Q 65.625 60.9375 72.265625 57.03125 
Q 78.90625 53.125 84.171875 51.171875 
Q 89.453125 49.21875 95.3125 48.046875 
Q 91.796875 42.96875 90.625 38.671875 
Q 81.640625 42.578125 75.1875 46.28125 
Q 68.75 50 63.859375 53.90625 
Q 58.984375 57.8125 48.828125 70.3125 
Q 40.234375 59.375 33.390625 53.515625 
Q 26.5625 47.65625 21.28125 43.9375 
Q 16.015625 40.234375 10.546875 36.328125 
Q 9.375 38.671875 3.90625 43.75 
Q 12.109375 46.875 19.53125 51.953125 
Q 26.953125 57.03125 33.59375 63.859375 
Q 40.234375 70.703125 46.09375 82.03125 
z
M 25.390625 47.265625 
Q 30.078125 46.875 39.453125 46.875 
L 60.9375 46.875 
Q 67.96875 46.875 72.65625 47.265625 
L 72.65625 40.234375 
Q 67.578125 40.625 61.328125 40.625 
L 39.453125 40.625 
Q 30.46875 40.625 25.390625 40.234375 
z
M 19.140625 26.953125 
L 79.296875 26.953125 
Q 78.90625 23.046875 78.90625 9.171875 
Q 78.90625 -4.6875 79.296875 -8.984375 
L 71.09375 -8.984375 
L 71.09375 -1.5625 
L 26.953125 -1.5625 
L 26.953125 -10.15625 
L 19.140625 -10.15625 
Q 19.53125 -5.46875 19.53125 7.8125 
Q 19.53125 21.09375 19.140625 26.953125 
z
M 26.953125 20.703125 
L 26.953125 4.6875 
L 71.09375 4.6875 
L 71.09375 20.703125 
z
" id="SimHei-21512"/>
       <path d="M 19.921875 33.203125 
L 81.640625 33.203125 
Q 81.25 28.125 81.25 22.453125 
Q 81.25 16.796875 81.640625 10.9375 
L 74.21875 10.9375 
L 74.21875 26.953125 
L 27.34375 26.953125 
L 27.34375 8.59375 
L 19.921875 8.59375 
Q 20.3125 15.625 20.3125 21.484375 
Q 20.3125 27.34375 19.921875 33.203125 
z
M 45.703125 22.265625 
Q 50.390625 22.265625 55.078125 22.265625 
Q 53.515625 17.96875 52.34375 13.28125 
Q 51.171875 8.59375 47.265625 4.09375 
Q 43.359375 -0.390625 35.734375 -4.09375 
Q 28.125 -7.8125 14.0625 -10.15625 
Q 11.71875 -5.46875 9.375 -1.953125 
Q 20.3125 -1.5625 27.34375 0.390625 
Q 34.375 2.34375 38.46875 5.46875 
Q 42.578125 8.59375 44.140625 12.890625 
Q 45.703125 17.1875 45.703125 22.265625 
z
M 56.25 4.296875 
Q 58.203125 7.421875 59.375 10.9375 
Q 66.40625 8.59375 73.234375 5.859375 
Q 80.078125 3.125 89.453125 -1.171875 
Q 87.109375 -4.296875 85.15625 -8.59375 
Q 78.125 -4.6875 71.28125 -1.5625 
Q 64.453125 1.5625 56.25 4.296875 
z
M 30.078125 67.1875 
Q 26.5625 64.453125 24.609375 61.71875 
Q 21.09375 64.453125 17.765625 66.796875 
Q 14.453125 69.140625 10.9375 70.703125 
Q 14.0625 73.4375 16.015625 75.78125 
Q 19.140625 73.4375 30.078125 67.1875 
z
M 28.90625 56.640625 
Q 30.859375 54.296875 33.203125 51.5625 
Q 19.53125 40.625 11.328125 33.59375 
Q 8.203125 37.5 5.078125 40.234375 
Q 10.15625 42.96875 16.203125 46.875 
Q 22.265625 50.78125 28.90625 56.640625 
z
M 76.953125 58.203125 
Q 78.515625 62.109375 80.46875 65.234375 
L 64.84375 65.234375 
Q 63.671875 59.375 65.421875 55.265625 
Q 67.1875 51.171875 71.09375 48.625 
Q 75 46.09375 80.859375 44.71875 
Q 86.71875 43.359375 94.140625 42.96875 
Q 91.015625 38.671875 89.453125 34.765625 
Q 80.078125 36.71875 72.65625 40.625 
Q 65.234375 44.53125 60.546875 52.734375 
Q 57.03125 44.140625 50.78125 40.625 
Q 44.53125 37.109375 36.71875 34.765625 
Q 33.984375 38.28125 30.859375 41.015625 
Q 46.484375 44.140625 51.359375 50.1875 
Q 56.25 56.25 56.640625 65.234375 
L 48.828125 65.234375 
Q 44.53125 59.375 40.234375 56.25 
Q 37.5 58.984375 34.375 61.328125 
Q 39.0625 63.671875 42.96875 68.9375 
Q 46.875 74.21875 49.21875 79.6875 
Q 53.125 78.125 57.8125 77.34375 
Q 55.46875 74.21875 53.125 71.484375 
L 91.40625 71.484375 
Q 90.234375 69.140625 84.765625 56.640625 
Q 80.078125 57.8125 76.953125 58.203125 
z
" id="SimHei-36164"/>
      </defs>
      <g transform="translate(278.150033 362.2975)scale(0.1 -0.1)">
       <use xlink:href="#SimHei-20013"/>
       <use x="100" xlink:href="#SimHei-22806"/>
       <use x="200" xlink:href="#SimHei-21512"/>
       <use x="300" xlink:href="#SimHei-36164"/>
      </g>
     </g>
    </g>
    <g id="xtick_4">
     <g id="line2d_4">
      <g>
       <use style="stroke:#000000;stroke-width:0.8;" x="387.66875" xlink:href="#m07e48310dd" y="347.367812"/>
      </g>
     </g>
     <g id="text_4">
      <!-- 其他 -->
      <defs>
       <path d="M 89.0625 60.9375 
Q 82.421875 61.328125 71.484375 61.328125 
L 71.484375 21.09375 
Q 86.71875 21.09375 94.53125 21.484375 
L 94.53125 15.234375 
Q 87.109375 15.625 82.03125 15.625 
L 19.53125 15.625 
Q 10.9375 15.625 5.078125 15.234375 
L 5.078125 21.484375 
Q 10.9375 21.09375 28.515625 21.09375 
L 28.515625 61.328125 
Q 16.015625 61.328125 10.546875 60.9375 
L 10.546875 67.578125 
Q 16.015625 67.1875 28.515625 67.1875 
Q 28.515625 75.78125 28.125 79.6875 
L 37.109375 79.6875 
Q 36.328125 75.390625 36.328125 67.1875 
L 63.671875 67.1875 
Q 63.671875 74.21875 63.28125 79.296875 
L 71.875 79.296875 
Q 71.484375 74.21875 71.484375 67.1875 
Q 82.8125 67.1875 89.0625 67.578125 
z
M 36.328125 61.328125 
L 36.328125 51.953125 
L 63.671875 51.953125 
L 63.671875 61.328125 
z
M 36.328125 46.484375 
L 36.328125 36.71875 
L 63.671875 36.71875 
L 63.671875 46.484375 
z
M 36.328125 30.859375 
L 36.328125 21.09375 
L 63.671875 21.09375 
L 63.671875 30.859375 
z
M 19.140625 -10.15625 
Q 15.625 -6.640625 12.5 -4.296875 
Q 17.578125 -1.953125 24.796875 2.734375 
Q 32.03125 7.421875 35.9375 12.5 
Q 39.0625 9.375 43.359375 6.640625 
Q 39.0625 4.296875 19.140625 -10.15625 
z
M 58.59375 6.640625 
Q 62.5 9.765625 64.0625 12.5 
Q 78.90625 3.125 87.5 -3.90625 
Q 83.984375 -6.640625 81.25 -10.15625 
Q 76.171875 -4.296875 58.59375 6.640625 
z
" id="SimHei-20854"/>
       <path d="M 27.734375 41.015625 
Q 32.8125 41.796875 40.234375 44.53125 
Q 40.234375 59.765625 39.84375 65.625 
L 47.65625 65.625 
Q 47.265625 60.546875 47.265625 46.875 
L 59.375 50.78125 
L 59.375 66.796875 
Q 59.375 74.609375 58.59375 80.078125 
L 66.796875 80.078125 
Q 66.40625 74.609375 66.40625 66.40625 
L 66.40625 53.515625 
L 87.109375 60.9375 
Q 86.71875 40.234375 86.71875 32.03125 
Q 86.71875 23.828125 82.421875 21.875 
Q 78.125 19.921875 71.875 18.75 
Q 71.09375 22.65625 68.75 26.953125 
Q 75.78125 26.953125 77.34375 27.53125 
Q 78.90625 28.125 78.90625 31.25 
L 79.296875 50.78125 
L 66.40625 46.09375 
L 66.40625 21.09375 
Q 66.40625 14.453125 66.796875 9.765625 
L 58.984375 9.765625 
Q 59.375 14.453125 59.375 21.09375 
L 59.375 44.140625 
L 47.265625 39.84375 
L 47.265625 6.25 
Q 47.265625 0.78125 52.734375 1.171875 
L 78.90625 1.171875 
Q 82.03125 1.171875 83.59375 2.921875 
Q 85.15625 4.6875 85.9375 14.0625 
Q 90.625 10.546875 94.53125 9.765625 
Q 91.796875 -0.390625 88.859375 -3.125 
Q 85.9375 -5.859375 80.078125 -5.46875 
L 51.171875 -5.46875 
Q 41.015625 -5.859375 40.234375 3.90625 
L 40.234375 37.5 
Q 34.375 35.546875 30.859375 33.59375 
z
M 24.21875 80.46875 
Q 30.46875 77.734375 33.984375 76.5625 
Q 30.46875 73.4375 25 60.15625 
L 25 8.59375 
Q 25 -1.171875 25.390625 -7.8125 
L 17.578125 -7.8125 
Q 17.96875 -1.171875 17.96875 8.59375 
L 17.96875 46.875 
Q 12.890625 37.5 10.15625 33.203125 
Q 7.8125 36.71875 4.296875 38.671875 
Q 8.984375 44.140625 15.8125 58 
Q 22.65625 71.875 24.21875 80.46875 
z
" id="SimHei-20182"/>
      </defs>
      <g transform="translate(377.66875 362.14125)scale(0.1 -0.1)">
       <use xlink:href="#SimHei-20854"/>
       <use x="100" xlink:href="#SimHei-20182"/>
      </g>
     </g>
    </g>
    <g id="xtick_5">
     <g id="line2d_5">
      <g>
       <use style="stroke:#000000;stroke-width:0.8;" x="477.187467" xlink:href="#m07e48310dd" y="347.367812"/>
      </g>
     </g>
     <g id="text_5">
      <!-- 集体企业 -->
      <defs>
       <path d="M 26.5625 50.390625 
L 26.5625 43.75 
L 48.4375 43.75 
L 48.4375 50.390625 
z
M 26.5625 38.28125 
L 26.5625 32.421875 
L 48.4375 32.421875 
L 48.4375 38.28125 
z
M 26.5625 62.109375 
L 26.5625 55.859375 
L 48.4375 55.859375 
L 48.4375 62.109375 
z
M 48.828125 77.34375 
Q 51.171875 79.296875 55.078125 81.640625 
Q 55.859375 80.46875 58.203125 77.734375 
Q 60.546875 75 62.5 72.65625 
Q 59.375 71.09375 55.859375 68.75 
Q 53.515625 71.09375 52.140625 73.234375 
Q 50.78125 75.390625 48.828125 77.34375 
z
M 27.734375 81.640625 
Q 31.25 79.6875 37.109375 76.953125 
Q 34.765625 75 33.203125 72.84375 
Q 31.640625 70.703125 29.6875 67.578125 
L 76.5625 67.578125 
Q 82.03125 67.578125 89.0625 67.96875 
L 89.0625 61.71875 
Q 81.640625 62.109375 76.5625 62.109375 
L 55.859375 62.109375 
L 55.859375 55.859375 
L 71.484375 55.859375 
Q 76.5625 55.859375 82.421875 56.25 
L 82.421875 50 
Q 76.5625 50.390625 71.484375 50.390625 
L 55.859375 50.390625 
L 55.859375 43.75 
L 72.265625 43.75 
Q 77.734375 43.75 83.984375 44.140625 
L 83.984375 37.890625 
Q 77.734375 38.28125 72.265625 38.28125 
L 55.859375 38.28125 
L 55.859375 32.421875 
L 75.78125 32.421875 
Q 81.640625 32.421875 87.890625 32.8125 
L 87.890625 26.5625 
Q 82.03125 26.953125 76.171875 26.953125 
L 26.5625 26.953125 
L 26.5625 23.046875 
L 18.75 23.046875 
Q 19.140625 30.078125 19.140625 35.9375 
L 19.140625 53.515625 
Q 17.1875 50.78125 15.421875 48.828125 
Q 13.671875 46.875 11.71875 44.53125 
Q 8.984375 46.875 5.078125 49.21875 
Q 8.203125 51.953125 11.328125 55.46875 
Q 14.453125 58.984375 17.375 63.078125 
Q 20.3125 67.1875 22.84375 71.875 
Q 25.390625 76.5625 27.734375 81.640625 
z
M 8.59375 16.40625 
Q 13.28125 16.015625 22.265625 16.015625 
L 46.484375 16.015625 
Q 46.484375 19.53125 46.09375 24.609375 
L 54.296875 24.609375 
Q 53.90625 19.140625 53.90625 16.015625 
L 78.515625 16.015625 
Q 85.15625 16.015625 91.796875 16.40625 
L 91.796875 10.15625 
Q 85.15625 10.546875 78.515625 10.546875 
L 64.453125 10.546875 
Q 69.140625 5.859375 75.96875 3.3125 
Q 82.8125 0.78125 93.359375 -1.5625 
Q 90.234375 -5.46875 88.671875 -9.375 
Q 81.640625 -6.640625 76.5625 -4.484375 
Q 71.484375 -2.34375 67.765625 0 
Q 64.0625 2.34375 61.328125 4.875 
Q 58.59375 7.421875 55.859375 10.546875 
L 53.90625 10.546875 
L 53.90625 1.5625 
Q 53.90625 -4.296875 54.6875 -10.15625 
L 46.09375 -10.15625 
Q 46.484375 -4.6875 46.484375 1.5625 
L 46.484375 10.546875 
L 44.921875 10.546875 
Q 41.796875 6.640625 38.46875 3.515625 
Q 35.15625 0.390625 31.25 -1.953125 
Q 27.34375 -4.296875 22.65625 -6.046875 
Q 17.96875 -7.8125 12.890625 -10.15625 
Q 11.328125 -6.640625 7.421875 -2.734375 
Q 15.234375 -1.5625 23.625 1.75 
Q 32.03125 5.078125 36.328125 10.546875 
L 22.265625 10.546875 
Q 15.625 10.546875 8.59375 10.15625 
z
" id="SimHei-38598"/>
       <path d="M 30.859375 60.15625 
Q 35.546875 59.765625 41.796875 59.765625 
L 57.03125 59.765625 
Q 57.03125 73.828125 56.640625 79.6875 
L 64.453125 79.6875 
Q 64.0625 74.21875 64.0625 59.765625 
L 81.25 59.765625 
Q 89.0625 59.765625 92.578125 60.15625 
L 92.578125 53.125 
Q 89.0625 53.515625 81.640625 53.515625 
L 69.921875 53.515625 
Q 75.390625 27.734375 96.484375 13.671875 
Q 92.1875 11.328125 90.234375 7.03125 
Q 69.140625 23.046875 64.0625 53.125 
L 64.0625 14.84375 
Q 73.828125 14.84375 77.34375 15.234375 
L 77.34375 8.203125 
Q 73.828125 8.59375 64.0625 8.59375 
Q 64.0625 0.78125 64.453125 -9.375 
L 56.640625 -9.375 
Q 57.03125 1.171875 57.03125 8.59375 
Q 51.5625 8.59375 43.75 8.203125 
L 43.75 15.234375 
Q 51.5625 14.84375 57.03125 14.84375 
L 57.03125 53.515625 
L 56.640625 53.515625 
Q 50.390625 22.65625 32.03125 5.859375 
Q 29.6875 9.375 25.390625 11.328125 
Q 43.75 25.390625 49.609375 53.515625 
L 41.796875 53.515625 
Q 35.546875 53.515625 30.859375 53.125 
z
M 22.265625 79.6875 
Q 26.5625 77.734375 31.25 76.171875 
Q 28.515625 72.65625 23.828125 58.59375 
L 23.828125 8.59375 
Q 23.828125 -3.515625 24.21875 -8.984375 
L 16.40625 -8.984375 
Q 16.796875 -3.90625 16.796875 8.203125 
L 16.796875 44.921875 
Q 14.84375 40.625 8.984375 31.640625 
Q 7.03125 35.15625 3.515625 37.5 
Q 8.203125 42.1875 14.453125 56.046875 
Q 20.703125 69.921875 22.265625 79.6875 
z
" id="SimHei-20307"/>
      </defs>
      <g transform="translate(457.187467 362.2975)scale(0.1 -0.1)">
       <use xlink:href="#SimHei-38598"/>
       <use x="100" xlink:href="#SimHei-20307"/>
       <use x="200" xlink:href="#SimHei-20225"/>
       <use x="300" xlink:href="#SimHei-19994"/>
      </g>
     </g>
    </g>
    <g id="xtick_6">
     <g id="line2d_6">
      <g>
       <use style="stroke:#000000;stroke-width:0.8;" x="566.706183" xlink:href="#m07e48310dd" y="347.367812"/>
      </g>
     </g>
     <g id="text_6">
      <!-- 外商独资 -->
      <defs>
       <path d="M 42.96875 20.703125 
L 42.96875 9.375 
L 58.59375 9.375 
L 58.59375 20.703125 
z
M 43.75 78.90625 
Q 47.65625 80.078125 51.953125 80.859375 
Q 54.296875 74.609375 55.078125 71.484375 
L 78.125 71.484375 
Q 85.9375 71.484375 93.75 71.875 
L 93.75 64.84375 
Q 85.9375 65.234375 78.125 65.234375 
L 22.65625 65.234375 
Q 13.28125 65.234375 6.640625 64.84375 
L 6.640625 71.875 
Q 13.28125 71.484375 22.265625 71.484375 
L 46.875 71.484375 
Q 45.3125 75.390625 43.75 78.90625 
z
M 29.296875 59.765625 
Q 32.8125 61.71875 35.9375 64.0625 
Q 41.015625 57.421875 42.578125 55.078125 
Q 39.84375 53.90625 36.71875 51.5625 
L 57.03125 51.5625 
Q 59.375 57.8125 60.9375 63.671875 
Q 65.234375 62.109375 70.703125 60.9375 
Q 67.578125 57.8125 64.0625 51.5625 
L 86.71875 51.5625 
Q 86.328125 46.484375 86.328125 38.671875 
L 86.328125 -0.390625 
Q 86.328125 -5.078125 82.03125 -7.03125 
Q 77.734375 -8.984375 71.875 -10.15625 
Q 71.09375 -5.46875 68.75 -1.5625 
Q 74.609375 -1.953125 76.5625 -0.96875 
Q 78.515625 0 78.515625 2.734375 
L 78.515625 45.703125 
L 21.09375 45.703125 
L 21.09375 -8.984375 
L 12.890625 -8.984375 
Q 13.28125 0.78125 13.28125 5.078125 
L 13.28125 39.453125 
Q 13.28125 42.96875 12.890625 51.5625 
L 35.546875 51.5625 
Q 33.203125 56.25 29.296875 59.765625 
z
M 40.234375 41.796875 
Q 44.140625 39.453125 48.046875 37.5 
Q 44.140625 35.546875 35.9375 26.5625 
L 66.40625 26.5625 
Q 66.015625 21.484375 66.015625 15.421875 
Q 66.015625 9.375 66.40625 3.515625 
L 35.15625 3.515625 
Q 35.546875 9.375 35.546875 15.234375 
Q 35.546875 21.09375 35.15625 25.78125 
Q 32.8125 23.4375 30.46875 21.484375 
Q 27.734375 24.21875 24.21875 25.78125 
Q 35.9375 35.15625 40.234375 41.796875 
z
M 54.296875 37.109375 
Q 57.03125 39.453125 58.984375 42.1875 
Q 69.921875 35.15625 76.171875 29.6875 
Q 73.046875 27.34375 71.09375 24.21875 
Q 66.796875 28.90625 54.296875 37.109375 
z
" id="SimHei-21830"/>
       <path d="M 49.609375 55.078125 
L 49.609375 29.6875 
L 60.546875 29.6875 
L 60.546875 55.078125 
z
M 67.578125 55.078125 
L 67.578125 29.6875 
L 79.6875 29.6875 
L 79.6875 55.078125 
z
M 82.421875 3.90625 
Q 80.46875 8.203125 78.90625 12.109375 
Q 82.421875 13.28125 86.328125 14.84375 
Q 87.890625 10.15625 90.234375 4.296875 
Q 92.578125 -1.5625 94.140625 -6.25 
Q 90.234375 -7.421875 86.328125 -8.984375 
Q 85.15625 -5.078125 83.984375 -1.5625 
Q 66.796875 -3.515625 55.265625 -4.875 
Q 43.75 -6.25 38.671875 -7.421875 
Q 37.5 -2.734375 35.9375 1.171875 
Q 43.359375 1.171875 60.546875 2.34375 
L 60.546875 23.4375 
L 49.609375 23.4375 
L 49.609375 16.40625 
L 42.1875 16.40625 
Q 42.578125 24.609375 42.578125 39.84375 
Q 42.578125 55.078125 42.1875 61.328125 
L 60.546875 61.328125 
L 60.546875 68.75 
Q 60.546875 74.609375 60.15625 80.078125 
L 68.75 80.078125 
Q 67.96875 75.78125 67.578125 68.75 
L 67.578125 61.328125 
L 87.109375 61.328125 
Q 86.71875 55.46875 86.71875 42.765625 
Q 86.71875 30.078125 87.109375 23.4375 
L 67.578125 23.4375 
L 67.578125 2.34375 
Q 71.09375 2.734375 82.421875 3.90625 
z
M 33.203125 76.5625 
Q 36.328125 73.4375 39.84375 70.703125 
Q 37.109375 69.140625 34.375 66.203125 
Q 31.640625 63.28125 27.734375 58.984375 
Q 30.46875 53.125 32.21875 44.140625 
Q 33.984375 35.15625 34.375 25.78125 
Q 34.765625 16.40625 33 7.03125 
Q 31.25 -2.34375 25 -5.859375 
Q 18.75 -9.375 14.453125 -10.15625 
Q 12.890625 -5.078125 10.546875 -1.5625 
Q 17.96875 -0.390625 21.484375 2.140625 
Q 25 4.6875 26.359375 10.546875 
Q 27.734375 16.40625 26.953125 31.640625 
Q 17.96875 21.09375 8.984375 13.28125 
Q 6.640625 16.796875 3.90625 19.53125 
Q 8.59375 21.875 15.234375 28.3125 
Q 21.875 34.765625 25.390625 40.234375 
Q 24.21875 47.65625 21.875 53.90625 
Q 16.40625 48.828125 8.59375 43.359375 
Q 6.25 46.875 3.90625 49.609375 
Q 10.9375 52.734375 18.359375 59.765625 
Q 13.28125 66.015625 8.59375 68.75 
Q 11.328125 71.875 13.28125 75 
Q 18.75 71.09375 23.828125 64.84375 
Q 29.296875 70.3125 33.203125 76.5625 
z
" id="SimHei-29420"/>
      </defs>
      <g transform="translate(546.706183 362.180312)scale(0.1 -0.1)">
       <use xlink:href="#SimHei-22806"/>
       <use x="100" xlink:href="#SimHei-21830"/>
       <use x="200" xlink:href="#SimHei-29420"/>
       <use x="300" xlink:href="#SimHei-36164"/>
      </g>
     </g>
    </g>
    <g id="xtick_7">
     <g id="line2d_7">
      <g>
       <use style="stroke:#000000;stroke-width:0.8;" x="656.2249" xlink:href="#m07e48310dd" y="347.367812"/>
      </g>
     </g>
     <g id="text_7">
      <!-- 政府机关 -->
      <defs>
       <path d="M 49.609375 17.96875 
L 49.609375 11.328125 
Q 33.203125 7.03125 21.484375 3.515625 
Q 9.765625 0 7.421875 -1.171875 
Q 5.859375 3.125 4.296875 7.8125 
Q 8.59375 8.59375 12.5 9.375 
L 12.5 36.328125 
Q 12.5 44.140625 12.109375 48.828125 
L 20.3125 48.828125 
Q 19.921875 44.140625 19.921875 36.328125 
L 19.921875 10.9375 
L 28.515625 12.890625 
L 28.515625 65.234375 
Q 16.40625 65.234375 9.765625 64.84375 
L 9.765625 71.875 
Q 16.015625 71.484375 21.875 71.484375 
L 39.453125 71.484375 
Q 44.53125 71.484375 51.171875 71.875 
L 51.171875 64.84375 
Q 44.53125 65.234375 35.9375 65.234375 
L 35.9375 43.359375 
Q 41.015625 43.359375 46.875 43.75 
L 46.875 36.71875 
Q 41.015625 37.109375 35.9375 37.109375 
L 35.9375 14.453125 
z
M 44.53125 -9.375 
Q 42.1875 -3.90625 38.671875 -1.5625 
Q 44.921875 -0.390625 51.953125 3.515625 
Q 58.984375 7.421875 64.0625 13.671875 
Q 60.9375 19.921875 58.78125 27.53125 
Q 56.640625 35.15625 55.46875 43.359375 
L 53.515625 40.234375 
Q 50.390625 42.1875 46.875 44.53125 
Q 51.5625 50.78125 55.46875 59.953125 
Q 59.375 69.140625 62.5 80.46875 
Q 65.234375 78.90625 71.875 76.171875 
Q 69.921875 74.609375 67.765625 70.109375 
Q 65.625 65.625 64.0625 61.71875 
L 80.46875 61.71875 
Q 87.890625 61.71875 93.359375 62.109375 
L 93.359375 55.078125 
Q 88.28125 55.46875 83.59375 55.46875 
Q 83.203125 41.015625 80.078125 29.875 
Q 76.953125 18.75 73.046875 13.28125 
Q 77.34375 7.8125 83.203125 4.6875 
Q 89.0625 1.5625 95.703125 0 
Q 91.015625 -4.296875 89.84375 -8.59375 
Q 83.203125 -5.078125 78.515625 -1.75 
Q 73.828125 1.5625 68.75 7.421875 
Q 62.5 1.171875 56.640625 -2.53125 
Q 50.78125 -6.25 44.53125 -9.375 
z
M 61.71875 55.46875 
Q 58.984375 50 55.46875 43.75 
Q 59.375 43.75 62.5 44.53125 
Q 64.453125 31.25 68.75 20.703125 
Q 71.875 27.734375 73.625 35.34375 
Q 75.390625 42.96875 76.171875 55.46875 
z
" id="SimHei-25919"/>
       <path d="M 33.59375 34.375 
Q 31.25 31.25 27.734375 26.5625 
Q 24.609375 29.6875 21.484375 32.03125 
Q 26.953125 37.109375 31.640625 44.921875 
Q 36.328125 52.734375 38.671875 60.15625 
Q 43.359375 57.8125 47.65625 56.25 
Q 42.1875 48.4375 40.625 44.921875 
L 40.625 7.03125 
Q 40.625 0 41.015625 -8.59375 
L 33.203125 -8.59375 
Q 33.59375 -0.390625 33.59375 7.421875 
z
M 62.5 17.1875 
Q 60.9375 16.40625 56.640625 13.671875 
Q 55.078125 17.1875 49.609375 27.34375 
Q 53.90625 30.46875 55.46875 31.25 
Q 60.546875 21.875 62.5 17.1875 
z
M 58.203125 38.28125 
Q 53.125 38.28125 44.921875 37.890625 
L 44.921875 44.921875 
Q 53.515625 44.53125 58.203125 44.53125 
L 72.65625 44.53125 
Q 72.65625 53.90625 72.265625 58.984375 
L 80.078125 58.984375 
Q 79.6875 53.90625 79.6875 44.53125 
Q 86.71875 44.53125 92.578125 44.921875 
L 92.578125 37.890625 
Q 87.109375 38.28125 79.6875 38.28125 
L 79.6875 2.734375 
Q 80.078125 -5.078125 75.390625 -7.03125 
Q 70.703125 -8.984375 63.671875 -9.765625 
Q 62.5 -4.6875 60.9375 -1.171875 
Q 67.96875 -1.171875 70.5 -0.390625 
Q 73.046875 0.390625 72.65625 4.6875 
L 72.65625 38.28125 
z
M 4.6875 -3.125 
Q 9.375 4.296875 11.328125 14.0625 
Q 13.28125 23.828125 13.859375 38.46875 
Q 14.453125 53.125 14.0625 68.75 
L 48.828125 68.75 
Q 47.65625 73.828125 46.09375 78.515625 
Q 50 79.296875 54.6875 80.46875 
Q 56.25 74.21875 57.421875 68.75 
L 73.046875 68.75 
Q 82.03125 68.75 90.234375 69.140625 
L 90.234375 62.109375 
Q 82.8125 62.5 73.046875 62.5 
L 21.875 62.5 
Q 21.875 40.234375 21.09375 30.078125 
Q 20.3125 19.921875 18.15625 10.546875 
Q 16.015625 1.171875 12.5 -7.03125 
Q 8.59375 -4.6875 4.6875 -3.125 
z
" id="SimHei-24220"/>
       <path d="M 28.125 37.890625 
Q 30.46875 39.84375 33.59375 42.1875 
Q 39.84375 33.59375 42.96875 28.90625 
Q 40.234375 26.5625 36.328125 23.828125 
Q 33.984375 28.90625 28.125 37.5 
L 28.125 8.984375 
Q 28.125 1.171875 28.515625 -8.59375 
L 20.3125 -8.59375 
Q 20.703125 1.171875 20.703125 8.984375 
L 20.703125 33.984375 
Q 18.75 28.125 16.40625 22.84375 
Q 14.0625 17.578125 9.765625 10.9375 
Q 6.25 14.84375 3.515625 17.1875 
Q 6.640625 20.703125 11.71875 30.859375 
Q 16.796875 41.015625 19.53125 53.515625 
L 17.1875 53.515625 
Q 11.71875 53.515625 6.25 52.734375 
L 6.25 60.15625 
Q 11.71875 59.765625 16.796875 59.765625 
L 20.703125 59.765625 
L 20.703125 67.578125 
Q 20.703125 73.828125 20.3125 79.296875 
L 28.90625 79.296875 
Q 28.125 75.390625 28.125 67.578125 
L 28.125 59.765625 
L 32.421875 59.765625 
Q 36.71875 59.765625 42.1875 60.15625 
L 42.1875 53.125 
Q 33.59375 53.515625 28.125 53.515625 
z
M 49.609375 74.21875 
L 80.078125 74.21875 
Q 79.6875 63.28125 79.6875 55.46875 
L 79.6875 4.6875 
Q 79.6875 -0.390625 81.25 -0.78125 
Q 82.8125 -1.171875 84.5625 -0.96875 
Q 86.328125 -0.78125 86.90625 1.75 
Q 87.5 4.296875 87.5 9.375 
Q 90.625 7.421875 95.3125 6.25 
Q 93.75 -1.953125 91.796875 -4.6875 
Q 89.84375 -7.421875 86.71875 -7.609375 
Q 83.59375 -7.8125 79.6875 -7.609375 
Q 75.78125 -7.421875 73.828125 -5.265625 
Q 71.875 -3.125 72.265625 3.515625 
L 72.265625 67.578125 
L 57.421875 67.578125 
Q 57.421875 45.3125 56.828125 33 
Q 56.25 20.703125 53.3125 10.734375 
Q 50.390625 0.78125 41.796875 -9.375 
Q 39.84375 -7.03125 34.765625 -3.125 
Q 40.234375 1.171875 43.546875 7.421875 
Q 46.875 13.671875 48.046875 20.3125 
Q 49.21875 26.953125 49.609375 34.375 
Q 50 41.796875 50 53.3125 
Q 50 64.84375 49.609375 74.21875 
z
" id="SimHei-26426"/>
       <path d="M 26.953125 75.78125 
Q 30.859375 78.125 34.375 80.46875 
Q 39.0625 73.828125 43.75 66.015625 
Q 39.0625 64.0625 35.9375 61.71875 
Q 31.640625 69.921875 26.953125 75.78125 
z
M 62.890625 79.6875 
Q 67.578125 76.953125 72.65625 75 
Q 70.703125 73.046875 68.15625 68.75 
Q 65.625 64.453125 63.671875 60.546875 
L 73.046875 60.546875 
Q 80.859375 60.546875 87.5 60.9375 
L 87.5 53.90625 
Q 82.421875 54.296875 74.21875 54.296875 
L 53.515625 54.296875 
L 53.515625 33.984375 
L 78.125 33.984375 
Q 86.328125 33.984375 92.1875 34.375 
L 92.1875 27.34375 
Q 86.328125 27.734375 78.90625 27.734375 
L 55.078125 27.734375 
Q 67.1875 5.859375 95.703125 1.171875 
Q 91.796875 -2.734375 89.453125 -8.203125 
Q 64.0625 -0.390625 50.78125 21.09375 
Q 44.921875 3.515625 13.671875 -10.546875 
Q 11.71875 -6.25 6.640625 -2.34375 
Q 39.453125 6.25 44.921875 27.734375 
L 24.609375 27.734375 
Q 15.234375 27.734375 9.375 27.34375 
L 9.375 34.375 
Q 13.671875 33.984375 23.046875 33.984375 
L 46.09375 33.984375 
L 46.09375 54.296875 
L 27.34375 54.296875 
Q 19.921875 54.296875 14.0625 53.90625 
L 14.0625 60.9375 
Q 19.921875 60.546875 27.734375 60.546875 
L 56.25 60.546875 
Q 61.71875 73.046875 62.890625 79.6875 
z
" id="SimHei-20851"/>
      </defs>
      <g transform="translate(636.2249 362.180312)scale(0.1 -0.1)">
       <use xlink:href="#SimHei-25919"/>
       <use x="100" xlink:href="#SimHei-24220"/>
       <use x="200" xlink:href="#SimHei-26426"/>
       <use x="300" xlink:href="#SimHei-20851"/>
      </g>
     </g>
    </g>
    <g id="text_8">
     <!-- 企业性质 -->
     <defs>
      <path d="M 47.265625 71.875 
Q 51.5625 70.703125 55.46875 69.921875 
Q 53.515625 63.28125 52.734375 58.203125 
L 64.84375 58.203125 
L 64.84375 66.40625 
Q 64.84375 72.65625 64.453125 78.90625 
L 72.65625 78.90625 
Q 72.265625 72.65625 72.265625 66.40625 
L 72.265625 58.203125 
L 80.078125 58.203125 
Q 85.546875 58.203125 92.578125 58.59375 
L 92.578125 51.5625 
Q 85.546875 51.953125 80.078125 51.953125 
L 72.265625 51.953125 
L 72.265625 31.640625 
L 79.296875 31.640625 
Q 85.546875 31.640625 91.40625 32.03125 
L 91.40625 25 
Q 85.546875 25.390625 79.296875 25.390625 
L 72.265625 25.390625 
L 72.265625 1.953125 
L 82.8125 1.953125 
Q 89.84375 1.953125 96.09375 2.34375 
L 96.09375 -4.6875 
Q 89.84375 -4.296875 82.8125 -4.296875 
L 52.734375 -4.296875 
Q 45.3125 -4.296875 38.671875 -4.6875 
L 38.671875 2.34375 
Q 45.3125 1.953125 52.34375 1.953125 
L 64.84375 1.953125 
L 64.84375 25.390625 
L 58.203125 25.390625 
Q 51.5625 25.390625 44.53125 25 
L 44.53125 32.03125 
Q 51.5625 31.640625 58.203125 31.640625 
L 64.84375 31.640625 
L 64.84375 51.953125 
L 51.171875 51.953125 
Q 49.609375 46.09375 47.65625 39.453125 
Q 42.578125 41.40625 39.84375 41.796875 
Q 42.96875 48.828125 44.53125 56.828125 
Q 46.09375 64.84375 47.265625 71.875 
z
M 7.8125 58.59375 
Q 10.9375 58.203125 14.453125 57.8125 
Q 13.28125 42.1875 12.5 33.984375 
Q 8.59375 34.375 5.078125 34.765625 
Q 7.03125 44.53125 7.8125 58.59375 
z
M 28.90625 59.765625 
Q 32.03125 61.328125 34.765625 62.5 
Q 37.890625 56.25 40.625 49.609375 
Q 36.328125 48.046875 33.59375 46.484375 
Q 32.03125 52.734375 28.90625 59.765625 
z
M 19.140625 78.515625 
L 27.34375 78.515625 
Q 26.953125 71.875 26.953125 64.84375 
L 26.953125 7.8125 
Q 26.953125 0 27.34375 -7.8125 
L 19.140625 -7.8125 
Q 19.53125 0 19.53125 7.8125 
L 19.53125 64.84375 
Q 19.53125 71.484375 19.140625 78.515625 
z
" id="SimHei-24615"/>
      <path d="M 16.015625 73.4375 
Q 27.734375 73.4375 37.890625 74.015625 
Q 48.046875 74.609375 59.953125 76.171875 
Q 71.875 77.734375 81.640625 80.859375 
Q 82.421875 76.171875 86.71875 71.09375 
Q 82.03125 71.09375 75.96875 70.5 
Q 69.921875 69.921875 60.15625 69.140625 
L 60.15625 57.421875 
L 79.6875 57.421875 
Q 84.765625 57.421875 91.796875 57.8125 
L 91.796875 50.78125 
Q 85.546875 51.171875 79.6875 51.171875 
L 60.15625 51.171875 
L 60.15625 40.625 
L 83.984375 40.625 
Q 83.59375 33.984375 83.59375 27.34375 
Q 83.59375 20.703125 83.984375 13.671875 
L 76.171875 13.671875 
L 76.171875 34.375 
L 39.84375 34.375 
L 39.84375 11.328125 
L 32.03125 11.328125 
Q 32.421875 19.140625 32.421875 26.5625 
Q 32.421875 33.984375 32.03125 40.625 
L 52.734375 40.625 
L 52.734375 51.171875 
L 24.609375 51.171875 
Q 24.21875 39.84375 23.828125 30.859375 
Q 23.4375 21.875 21.671875 12.6875 
Q 19.921875 3.515625 14.0625 -7.8125 
Q 10.15625 -5.46875 4.6875 -3.90625 
Q 10.546875 3.90625 12.890625 13.078125 
Q 15.234375 22.265625 15.8125 36.515625 
Q 16.40625 50.78125 16.40625 58.984375 
Q 16.40625 67.1875 16.015625 73.4375 
z
M 25 67.1875 
L 25 57.421875 
L 52.734375 57.421875 
L 52.734375 68.359375 
Q 29.296875 67.1875 25 67.1875 
z
M 53.90625 29.296875 
Q 58.59375 29.296875 63.671875 29.296875 
Q 62.109375 21.09375 61.125 13.671875 
Q 60.15625 6.25 53.90625 -0.1875 
Q 47.65625 -6.640625 30.859375 -10.9375 
Q 28.90625 -7.03125 25 -3.515625 
Q 36.71875 -1.5625 42.765625 1.75 
Q 48.828125 5.078125 51.359375 10.15625 
Q 53.90625 15.234375 54.09375 20.703125 
Q 54.296875 26.171875 53.90625 29.296875 
z
M 62.5 7.03125 
Q 65.234375 10.546875 66.796875 13.28125 
Q 72.65625 10.15625 80.265625 5.65625 
Q 87.890625 1.171875 93.75 -2.734375 
Q 91.015625 -5.46875 88.671875 -9.765625 
Q 80.078125 -3.515625 74.796875 0 
Q 69.53125 3.515625 62.5 7.03125 
z
" id="SimHei-36136"/>
     </defs>
     <g transform="translate(367.66875 375.594375)scale(0.1 -0.1)">
      <use xlink:href="#SimHei-20225"/>
      <use x="100" xlink:href="#SimHei-19994"/>
      <use x="200" xlink:href="#SimHei-24615"/>
      <use x="300" xlink:href="#SimHei-36136"/>
     </g>
    </g>
   </g>
   <g id="matplotlib.axis_2">
    <g id="ytick_1">
     <g id="line2d_8">
      <defs>
       <path d="M 0 0 
L -3.5 0 
" id="m1014169f61" style="stroke:#000000;stroke-width:0.8;"/>
      </defs>
      <g>
       <use style="stroke:#000000;stroke-width:0.8;" x="52.86875" xlink:href="#m1014169f61" y="347.367812"/>
      </g>
     </g>
     <g id="text_9">
      <!-- 0 -->
      <defs>
       <path d="M 31.78125 66.40625 
Q 24.171875 66.40625 20.328125 58.90625 
Q 16.5 51.421875 16.5 36.375 
Q 16.5 21.390625 20.328125 13.890625 
Q 24.171875 6.390625 31.78125 6.390625 
Q 39.453125 6.390625 43.28125 13.890625 
Q 47.125 21.390625 47.125 36.375 
Q 47.125 51.421875 43.28125 58.90625 
Q 39.453125 66.40625 31.78125 66.40625 
z
M 31.78125 74.21875 
Q 44.046875 74.21875 50.515625 64.515625 
Q 56.984375 54.828125 56.984375 36.375 
Q 56.984375 17.96875 50.515625 8.265625 
Q 44.046875 -1.421875 31.78125 -1.421875 
Q 19.53125 -1.421875 13.0625 8.265625 
Q 6.59375 17.96875 6.59375 36.375 
Q 6.59375 54.828125 13.0625 64.515625 
Q 19.53125 74.21875 31.78125 74.21875 
z
" id="DejaVuSans-48"/>
      </defs>
      <g transform="translate(39.50625 351.167031)scale(0.1 -0.1)">
       <use xlink:href="#DejaVuSans-48"/>
      </g>
     </g>
    </g>
    <g id="ytick_2">
     <g id="line2d_9">
      <g>
       <use style="stroke:#000000;stroke-width:0.8;" x="52.86875" xlink:href="#m1014169f61" y="308.942705"/>
      </g>
     </g>
     <g id="text_10">
      <!-- 500 -->
      <defs>
       <path d="M 10.796875 72.90625 
L 49.515625 72.90625 
L 49.515625 64.59375 
L 19.828125 64.59375 
L 19.828125 46.734375 
Q 21.96875 47.46875 24.109375 47.828125 
Q 26.265625 48.1875 28.421875 48.1875 
Q 40.625 48.1875 47.75 41.5 
Q 54.890625 34.8125 54.890625 23.390625 
Q 54.890625 11.625 47.5625 5.09375 
Q 40.234375 -1.421875 26.90625 -1.421875 
Q 22.3125 -1.421875 17.546875 -0.640625 
Q 12.796875 0.140625 7.71875 1.703125 
L 7.71875 11.625 
Q 12.109375 9.234375 16.796875 8.0625 
Q 21.484375 6.890625 26.703125 6.890625 
Q 35.15625 6.890625 40.078125 11.328125 
Q 45.015625 15.765625 45.015625 23.390625 
Q 45.015625 31 40.078125 35.4375 
Q 35.15625 39.890625 26.703125 39.890625 
Q 22.75 39.890625 18.8125 39.015625 
Q 14.890625 38.140625 10.796875 36.28125 
z
" id="DejaVuSans-53"/>
      </defs>
      <g transform="translate(26.78125 312.741923)scale(0.1 -0.1)">
       <use xlink:href="#DejaVuSans-53"/>
       <use x="63.623047" xlink:href="#DejaVuSans-48"/>
       <use x="127.246094" xlink:href="#DejaVuSans-48"/>
      </g>
     </g>
    </g>
    <g id="ytick_3">
     <g id="line2d_10">
      <g>
       <use style="stroke:#000000;stroke-width:0.8;" x="52.86875" xlink:href="#m1014169f61" y="270.517597"/>
      </g>
     </g>
     <g id="text_11">
      <!-- 1000 -->
      <defs>
       <path d="M 12.40625 8.296875 
L 28.515625 8.296875 
L 28.515625 63.921875 
L 10.984375 60.40625 
L 10.984375 69.390625 
L 28.421875 72.90625 
L 38.28125 72.90625 
L 38.28125 8.296875 
L 54.390625 8.296875 
L 54.390625 0 
L 12.40625 0 
z
" id="DejaVuSans-49"/>
      </defs>
      <g transform="translate(20.41875 274.316816)scale(0.1 -0.1)">
       <use xlink:href="#DejaVuSans-49"/>
       <use x="63.623047" xlink:href="#DejaVuSans-48"/>
       <use x="127.246094" xlink:href="#DejaVuSans-48"/>
       <use x="190.869141" xlink:href="#DejaVuSans-48"/>
      </g>
     </g>
    </g>
    <g id="ytick_4">
     <g id="line2d_11">
      <g>
       <use style="stroke:#000000;stroke-width:0.8;" x="52.86875" xlink:href="#m1014169f61" y="232.092489"/>
      </g>
     </g>
     <g id="text_12">
      <!-- 1500 -->
      <g transform="translate(20.41875 235.891708)scale(0.1 -0.1)">
       <use xlink:href="#DejaVuSans-49"/>
       <use x="63.623047" xlink:href="#DejaVuSans-53"/>
       <use x="127.246094" xlink:href="#DejaVuSans-48"/>
       <use x="190.869141" xlink:href="#DejaVuSans-48"/>
      </g>
     </g>
    </g>
    <g id="ytick_5">
     <g id="line2d_12">
      <g>
       <use style="stroke:#000000;stroke-width:0.8;" x="52.86875" xlink:href="#m1014169f61" y="193.667381"/>
      </g>
     </g>
     <g id="text_13">
      <!-- 2000 -->
      <defs>
       <path d="M 19.1875 8.296875 
L 53.609375 8.296875 
L 53.609375 0 
L 7.328125 0 
L 7.328125 8.296875 
Q 12.9375 14.109375 22.625 23.890625 
Q 32.328125 33.6875 34.8125 36.53125 
Q 39.546875 41.84375 41.421875 45.53125 
Q 43.3125 49.21875 43.3125 52.78125 
Q 43.3125 58.59375 39.234375 62.25 
Q 35.15625 65.921875 28.609375 65.921875 
Q 23.96875 65.921875 18.8125 64.3125 
Q 13.671875 62.703125 7.8125 59.421875 
L 7.8125 69.390625 
Q 13.765625 71.78125 18.9375 73 
Q 24.125 74.21875 28.421875 74.21875 
Q 39.75 74.21875 46.484375 68.546875 
Q 53.21875 62.890625 53.21875 53.421875 
Q 53.21875 48.921875 51.53125 44.890625 
Q 49.859375 40.875 45.40625 35.40625 
Q 44.1875 33.984375 37.640625 27.21875 
Q 31.109375 20.453125 19.1875 8.296875 
z
" id="DejaVuSans-50"/>
      </defs>
      <g transform="translate(20.41875 197.4666)scale(0.1 -0.1)">
       <use xlink:href="#DejaVuSans-50"/>
       <use x="63.623047" xlink:href="#DejaVuSans-48"/>
       <use x="127.246094" xlink:href="#DejaVuSans-48"/>
       <use x="190.869141" xlink:href="#DejaVuSans-48"/>
      </g>
     </g>
    </g>
    <g id="ytick_6">
     <g id="line2d_13">
      <g>
       <use style="stroke:#000000;stroke-width:0.8;" x="52.86875" xlink:href="#m1014169f61" y="155.242274"/>
      </g>
     </g>
     <g id="text_14">
      <!-- 2500 -->
      <g transform="translate(20.41875 159.041492)scale(0.1 -0.1)">
       <use xlink:href="#DejaVuSans-50"/>
       <use x="63.623047" xlink:href="#DejaVuSans-53"/>
       <use x="127.246094" xlink:href="#DejaVuSans-48"/>
       <use x="190.869141" xlink:href="#DejaVuSans-48"/>
      </g>
     </g>
    </g>
    <g id="ytick_7">
     <g id="line2d_14">
      <g>
       <use style="stroke:#000000;stroke-width:0.8;" x="52.86875" xlink:href="#m1014169f61" y="116.817166"/>
      </g>
     </g>
     <g id="text_15">
      <!-- 3000 -->
      <defs>
       <path d="M 40.578125 39.3125 
Q 47.65625 37.796875 51.625 33 
Q 55.609375 28.21875 55.609375 21.1875 
Q 55.609375 10.40625 48.1875 4.484375 
Q 40.765625 -1.421875 27.09375 -1.421875 
Q 22.515625 -1.421875 17.65625 -0.515625 
Q 12.796875 0.390625 7.625 2.203125 
L 7.625 11.71875 
Q 11.71875 9.328125 16.59375 8.109375 
Q 21.484375 6.890625 26.8125 6.890625 
Q 36.078125 6.890625 40.9375 10.546875 
Q 45.796875 14.203125 45.796875 21.1875 
Q 45.796875 27.640625 41.28125 31.265625 
Q 36.765625 34.90625 28.71875 34.90625 
L 20.21875 34.90625 
L 20.21875 43.015625 
L 29.109375 43.015625 
Q 36.375 43.015625 40.234375 45.921875 
Q 44.09375 48.828125 44.09375 54.296875 
Q 44.09375 59.90625 40.109375 62.90625 
Q 36.140625 65.921875 28.71875 65.921875 
Q 24.65625 65.921875 20.015625 65.03125 
Q 15.375 64.15625 9.8125 62.3125 
L 9.8125 71.09375 
Q 15.4375 72.65625 20.34375 73.4375 
Q 25.25 74.21875 29.59375 74.21875 
Q 40.828125 74.21875 47.359375 69.109375 
Q 53.90625 64.015625 53.90625 55.328125 
Q 53.90625 49.265625 50.4375 45.09375 
Q 46.96875 40.921875 40.578125 39.3125 
z
" id="DejaVuSans-51"/>
      </defs>
      <g transform="translate(20.41875 120.616384)scale(0.1 -0.1)">
       <use xlink:href="#DejaVuSans-51"/>
       <use x="63.623047" xlink:href="#DejaVuSans-48"/>
       <use x="127.246094" xlink:href="#DejaVuSans-48"/>
       <use x="190.869141" xlink:href="#DejaVuSans-48"/>
      </g>
     </g>
    </g>
    <g id="ytick_8">
     <g id="line2d_15">
      <g>
       <use style="stroke:#000000;stroke-width:0.8;" x="52.86875" xlink:href="#m1014169f61" y="78.392058"/>
      </g>
     </g>
     <g id="text_16">
      <!-- 3500 -->
      <g transform="translate(20.41875 82.191277)scale(0.1 -0.1)">
       <use xlink:href="#DejaVuSans-51"/>
       <use x="63.623047" xlink:href="#DejaVuSans-53"/>
       <use x="127.246094" xlink:href="#DejaVuSans-48"/>
       <use x="190.869141" xlink:href="#DejaVuSans-48"/>
      </g>
     </g>
    </g>
    <g id="ytick_9">
     <g id="line2d_16">
      <g>
       <use style="stroke:#000000;stroke-width:0.8;" x="52.86875" xlink:href="#m1014169f61" y="39.96695"/>
      </g>
     </g>
     <g id="text_17">
      <!-- 4000 -->
      <defs>
       <path d="M 37.796875 64.3125 
L 12.890625 25.390625 
L 37.796875 25.390625 
z
M 35.203125 72.90625 
L 47.609375 72.90625 
L 47.609375 25.390625 
L 58.015625 25.390625 
L 58.015625 17.1875 
L 47.609375 17.1875 
L 47.609375 0 
L 37.796875 0 
L 37.796875 17.1875 
L 4.890625 17.1875 
L 4.890625 26.703125 
z
" id="DejaVuSans-52"/>
      </defs>
      <g transform="translate(20.41875 43.766169)scale(0.1 -0.1)">
       <use xlink:href="#DejaVuSans-52"/>
       <use x="63.623047" xlink:href="#DejaVuSans-48"/>
       <use x="127.246094" xlink:href="#DejaVuSans-48"/>
       <use x="190.869141" xlink:href="#DejaVuSans-48"/>
      </g>
     </g>
    </g>
    <g id="text_18">
     <!-- 企业数量 -->
     <defs>
      <path d="M 10.9375 75.78125 
Q 14.84375 76.953125 17.1875 78.515625 
Q 20.3125 73.4375 23.046875 68.359375 
Q 19.53125 66.796875 16.796875 65.234375 
Q 14.453125 71.09375 10.9375 75.78125 
z
M 44.921875 78.515625 
Q 49.21875 76.5625 53.125 75 
Q 50.78125 73.4375 49.21875 70.703125 
Q 47.65625 67.96875 45.703125 64.453125 
Q 42.578125 66.015625 39.453125 66.796875 
Q 42.578125 71.875 44.921875 78.515625 
z
M 38.28125 49.609375 
Q 41.796875 51.171875 44.140625 53.515625 
Q 48.828125 46.875 51.953125 41.40625 
Q 48.4375 39.84375 45.3125 37.5 
Q 42.1875 44.921875 38.28125 49.609375 
z
M 8.203125 61.71875 
Q 14.453125 61.328125 28.125 61.328125 
Q 28.125 72.65625 27.734375 80.859375 
L 35.546875 80.859375 
Q 35.15625 72.65625 35.15625 61.328125 
Q 48.046875 61.328125 53.90625 61.71875 
L 53.90625 54.6875 
Q 48.046875 55.078125 35.15625 55.078125 
Q 35.15625 46.09375 35.546875 39.453125 
L 27.734375 39.453125 
Q 28.125 45.3125 28.125 51.953125 
Q 26.171875 48.046875 21.671875 43.546875 
Q 17.1875 39.0625 11.71875 35.9375 
Q 10.15625 39.453125 6.640625 41.796875 
Q 10.15625 42.96875 15.421875 46.875 
Q 20.703125 50.78125 23.046875 55.078125 
Q 14.84375 55.078125 8.203125 54.6875 
z
M 26.953125 24.21875 
Q 25 20.3125 22.65625 16.40625 
Q 27.34375 15.234375 35.15625 13.28125 
Q 37.890625 16.796875 40.234375 24.21875 
z
M 24.21875 38.28125 
Q 28.515625 36.71875 32.8125 35.546875 
Q 31.25 33.984375 29.296875 30.46875 
L 44.53125 30.46875 
L 48.828125 30.46875 
Q 46.484375 20.3125 42.1875 11.328125 
Q 48.828125 9.375 52.734375 8.203125 
Q 49.609375 3.90625 48.046875 0.390625 
Q 44.53125 2.734375 37.5 5.46875 
Q 28.125 -3.90625 9.375 -10.15625 
Q 7.8125 -6.25 4.6875 -3.90625 
Q 21.484375 0 31.25 8.203125 
Q 20.3125 10.9375 13.28125 12.890625 
Q 15.625 16.015625 19.53125 24.21875 
Q 13.28125 24.21875 4.6875 23.828125 
L 4.6875 30.859375 
Q 12.109375 30.46875 21.875 30.46875 
Q 23.046875 33.59375 24.21875 38.28125 
z
M 63.671875 80.46875 
Q 68.359375 78.515625 73.4375 77.734375 
Q 71.484375 75.390625 70.5 72.265625 
Q 69.53125 69.140625 67.96875 63.28125 
L 85.546875 63.28125 
Q 89.0625 63.28125 94.53125 63.671875 
L 94.53125 56.640625 
Q 90.234375 57.03125 87.5 57.03125 
Q 87.109375 48.828125 85.546875 35.34375 
Q 83.984375 21.875 78.125 11.71875 
Q 82.03125 6.25 87.109375 2.734375 
Q 92.1875 -0.78125 96.09375 -2.34375 
Q 90.625 -5.859375 89.0625 -9.375 
Q 82.421875 -4.6875 79.296875 -1.359375 
Q 76.171875 1.953125 73.4375 5.859375 
Q 68.75 1.171875 64.640625 -1.953125 
Q 60.546875 -5.078125 51.5625 -10.15625 
Q 49.609375 -6.640625 45.3125 -3.90625 
Q 52.734375 -1.171875 58.984375 3.125 
Q 65.234375 7.421875 69.53125 12.109375 
Q 65.234375 20.703125 62.890625 29.09375 
Q 60.546875 37.5 60.15625 41.015625 
Q 59.375 38.28125 58.203125 34.765625 
Q 54.6875 36.328125 50.390625 37.890625 
Q 55.078125 46.484375 58.984375 58.59375 
Q 62.890625 70.703125 63.671875 80.46875 
z
M 66.40625 57.03125 
Q 64.84375 53.125 64.0625 50.578125 
Q 63.28125 48.046875 66.984375 36.71875 
Q 70.703125 25.390625 74.21875 19.140625 
Q 77.734375 28.515625 79.09375 38.671875 
Q 80.46875 48.828125 80.46875 57.03125 
z
" id="SimHei-25968"/>
      <path d="M 53.90625 33.984375 
L 53.90625 28.125 
L 74.21875 28.125 
L 74.21875 33.984375 
z
M 53.90625 23.828125 
L 53.90625 18.359375 
L 74.21875 18.359375 
L 74.21875 23.828125 
z
M 26.171875 33.984375 
L 26.171875 28.125 
L 46.875 28.125 
L 46.875 33.984375 
z
M 26.171875 23.828125 
L 26.171875 18.359375 
L 46.875 18.359375 
L 46.875 23.828125 
z
M 18.75 38.28125 
L 82.03125 38.28125 
Q 81.25 33.59375 81.25 27.140625 
Q 81.25 20.703125 82.03125 14.0625 
L 53.90625 14.0625 
L 53.90625 7.8125 
L 71.875 7.8125 
Q 78.125 8.203125 83.984375 8.203125 
L 83.984375 2.734375 
Q 78.125 3.515625 71.875 3.515625 
L 53.90625 3.515625 
L 53.90625 -3.515625 
L 80.078125 -3.515625 
Q 86.71875 -3.125 92.96875 -3.125 
L 92.96875 -8.203125 
Q 86.71875 -7.8125 80.078125 -7.8125 
L 20.3125 -7.8125 
Q 14.0625 -7.8125 7.421875 -8.203125 
L 7.421875 -3.125 
Q 14.453125 -3.125 20.3125 -3.515625 
L 46.875 -3.515625 
L 46.875 3.515625 
L 27.34375 3.515625 
Q 21.484375 3.515625 15.625 2.734375 
L 15.625 8.203125 
Q 21.875 8.203125 27.34375 7.8125 
L 46.875 7.8125 
L 46.875 14.0625 
L 18.75 14.0625 
Q 19.140625 20.3125 19.140625 26.75 
Q 19.140625 33.203125 18.75 38.28125 
z
M 26.171875 74.609375 
L 26.171875 67.96875 
L 74.21875 67.96875 
L 74.21875 74.609375 
z
M 26.171875 63.671875 
L 26.171875 57.421875 
L 74.21875 57.421875 
L 74.21875 63.671875 
z
M 18.75 78.90625 
L 82.03125 78.90625 
Q 81.25 72.65625 81.25 67.1875 
Q 81.25 61.71875 82.03125 53.125 
L 18.75 53.125 
Q 19.140625 61.71875 18.9375 67.1875 
Q 18.75 72.65625 18.75 78.90625 
z
M 7.421875 49.21875 
Q 17.1875 48.828125 27.34375 48.4375 
L 75.390625 48.4375 
Q 84.375 48.828125 92.1875 49.21875 
L 92.1875 43.75 
Q 84.375 44.140625 75.78125 44.140625 
L 27.34375 44.140625 
Q 17.1875 44.140625 7.421875 43.75 
z
" id="SimHei-37327"/>
     </defs>
     <g transform="translate(15.129688 204.287812)rotate(-90)scale(0.1 -0.1)">
      <use xlink:href="#SimHei-20225"/>
      <use x="100" xlink:href="#SimHei-19994"/>
      <use x="200" xlink:href="#SimHei-25968"/>
      <use x="300" xlink:href="#SimHei-37327"/>
     </g>
    </g>
   </g>
   <g id="patch_10">
    <path d="M 52.86875 347.367812 
L 52.86875 21.207812 
" style="fill:none;stroke:#000000;stroke-linecap:square;stroke-linejoin:miter;stroke-width:0.8;"/>
   </g>
   <g id="patch_11">
    <path d="M 722.46875 347.367812 
L 722.46875 21.207812 
" style="fill:none;stroke:#000000;stroke-linecap:square;stroke-linejoin:miter;stroke-width:0.8;"/>
   </g>
   <g id="patch_12">
    <path d="M 52.86875 347.367812 
L 722.46875 347.367812 
" style="fill:none;stroke:#000000;stroke-linecap:square;stroke-linejoin:miter;stroke-width:0.8;"/>
   </g>
   <g id="patch_13">
    <path d="M 52.86875 21.207812 
L 722.46875 21.207812 
" style="fill:none;stroke:#000000;stroke-linecap:square;stroke-linejoin:miter;stroke-width:0.8;"/>
   </g>
   <g id="text_19">
    <!-- 4042 -->
    <g transform="translate(106.3876 36.739241)scale(0.1 -0.1)">
     <use xlink:href="#DejaVuSans-52"/>
     <use x="63.623047" xlink:href="#DejaVuSans-48"/>
     <use x="127.246094" xlink:href="#DejaVuSans-52"/>
     <use x="190.869141" xlink:href="#DejaVuSans-50"/>
    </g>
   </g>
   <g id="text_20">
    <!-- 2796 -->
    <defs>
     <path d="M 8.203125 72.90625 
L 55.078125 72.90625 
L 55.078125 68.703125 
L 28.609375 0 
L 18.3125 0 
L 43.21875 64.59375 
L 8.203125 64.59375 
z
" id="DejaVuSans-55"/>
     <path d="M 10.984375 1.515625 
L 10.984375 10.5 
Q 14.703125 8.734375 18.5 7.8125 
Q 22.3125 6.890625 25.984375 6.890625 
Q 35.75 6.890625 40.890625 13.453125 
Q 46.046875 20.015625 46.78125 33.40625 
Q 43.953125 29.203125 39.59375 26.953125 
Q 35.25 24.703125 29.984375 24.703125 
Q 19.046875 24.703125 12.671875 31.3125 
Q 6.296875 37.9375 6.296875 49.421875 
Q 6.296875 60.640625 12.9375 67.421875 
Q 19.578125 74.21875 30.609375 74.21875 
Q 43.265625 74.21875 49.921875 64.515625 
Q 56.59375 54.828125 56.59375 36.375 
Q 56.59375 19.140625 48.40625 8.859375 
Q 40.234375 -1.421875 26.421875 -1.421875 
Q 22.703125 -1.421875 18.890625 -0.6875 
Q 15.09375 0.046875 10.984375 1.515625 
z
M 30.609375 32.421875 
Q 37.25 32.421875 41.125 36.953125 
Q 45.015625 41.5 45.015625 49.421875 
Q 45.015625 57.28125 41.125 61.84375 
Q 37.25 66.40625 30.609375 66.40625 
Q 23.96875 66.40625 20.09375 61.84375 
Q 16.21875 57.28125 16.21875 49.421875 
Q 16.21875 41.5 20.09375 36.953125 
Q 23.96875 32.421875 30.609375 32.421875 
z
" id="DejaVuSans-57"/>
     <path d="M 33.015625 40.375 
Q 26.375 40.375 22.484375 35.828125 
Q 18.609375 31.296875 18.609375 23.390625 
Q 18.609375 15.53125 22.484375 10.953125 
Q 26.375 6.390625 33.015625 6.390625 
Q 39.65625 6.390625 43.53125 10.953125 
Q 47.40625 15.53125 47.40625 23.390625 
Q 47.40625 31.296875 43.53125 35.828125 
Q 39.65625 40.375 33.015625 40.375 
z
M 52.59375 71.296875 
L 52.59375 62.3125 
Q 48.875 64.0625 45.09375 64.984375 
Q 41.3125 65.921875 37.59375 65.921875 
Q 27.828125 65.921875 22.671875 59.328125 
Q 17.53125 52.734375 16.796875 39.40625 
Q 19.671875 43.65625 24.015625 45.921875 
Q 28.375 48.1875 33.59375 48.1875 
Q 44.578125 48.1875 50.953125 41.515625 
Q 57.328125 34.859375 57.328125 23.390625 
Q 57.328125 12.15625 50.6875 5.359375 
Q 44.046875 -1.421875 33.015625 -1.421875 
Q 20.359375 -1.421875 13.671875 8.265625 
Q 6.984375 17.96875 6.984375 36.375 
Q 6.984375 53.65625 15.1875 63.9375 
Q 23.390625 74.21875 37.203125 74.21875 
Q 40.921875 74.21875 44.703125 73.484375 
Q 48.484375 72.75 52.59375 71.296875 
z
" id="DejaVuSans-54"/>
    </defs>
    <g transform="translate(195.906317 132.49461)scale(0.1 -0.1)">
     <use xlink:href="#DejaVuSans-50"/>
     <use x="63.623047" xlink:href="#DejaVuSans-55"/>
     <use x="127.246094" xlink:href="#DejaVuSans-57"/>
     <use x="190.869141" xlink:href="#DejaVuSans-54"/>
    </g>
   </g>
   <g id="text_21">
    <!-- 531 -->
    <g transform="translate(288.606283 306.560348)scale(0.1 -0.1)">
     <use xlink:href="#DejaVuSans-53"/>
     <use x="63.623047" xlink:href="#DejaVuSans-51"/>
     <use x="127.246094" xlink:href="#DejaVuSans-49"/>
    </g>
   </g>
   <g id="text_22">
    <!-- 101 -->
    <g transform="translate(378.125 339.605941)scale(0.1 -0.1)">
     <use xlink:href="#DejaVuSans-49"/>
     <use x="63.623047" xlink:href="#DejaVuSans-48"/>
     <use x="127.246094" xlink:href="#DejaVuSans-49"/>
    </g>
   </g>
   <g id="text_23">
    <!-- 9 -->
    <g transform="translate(474.006217 346.676161)scale(0.1 -0.1)">
     <use xlink:href="#DejaVuSans-57"/>
    </g>
   </g>
   <g id="text_24">
    <!-- 29 -->
    <g transform="translate(560.343683 345.139156)scale(0.1 -0.1)">
     <use xlink:href="#DejaVuSans-50"/>
     <use x="63.623047" xlink:href="#DejaVuSans-57"/>
    </g>
   </g>
   <g id="text_25">
    <!-- 10 -->
    <g transform="translate(649.8624 346.59931)scale(0.1 -0.1)">
     <use xlink:href="#DejaVuSans-49"/>
     <use x="63.623047" xlink:href="#DejaVuSans-48"/>
    </g>
   </g>
   <g id="text_26">
    <!-- 企业性质分布 -->
    <defs>
     <path d="M 45.3125 33.59375 
Q 44.53125 24.609375 42.375 17.96875 
Q 40.234375 11.328125 36.328125 6.640625 
Q 32.421875 1.953125 27.34375 -1.5625 
Q 22.265625 -5.078125 16.796875 -8.203125 
Q 14.0625 -3.90625 9.765625 -1.171875 
Q 16.015625 1.171875 20.703125 3.90625 
Q 25.390625 6.640625 29.09375 10.546875 
Q 32.8125 14.453125 34.765625 19.71875 
Q 36.71875 25 37.5 33.59375 
Q 28.90625 33.59375 24.609375 33.203125 
L 24.609375 40.625 
Q 30.078125 40.234375 38.671875 40.234375 
L 76.5625 40.234375 
Q 75.78125 35.15625 75.390625 31.25 
L 72.265625 4.296875 
Q 71.484375 -3.515625 66.40625 -5.078125 
Q 61.328125 -6.640625 55.078125 -7.8125 
Q 53.90625 -2.734375 51.171875 1.953125 
Q 58.59375 1.953125 61.328125 2.34375 
Q 64.0625 2.734375 64.84375 7.8125 
L 67.578125 33.59375 
z
M 37.109375 76.953125 
Q 41.40625 74.609375 46.09375 72.65625 
Q 43.75 70.3125 40.625 65.421875 
Q 37.5 60.546875 33.390625 54.875 
Q 29.296875 49.21875 24.40625 43.359375 
Q 19.53125 37.5 14.0625 32.421875 
Q 10.15625 36.328125 5.46875 38.671875 
Q 12.109375 42.96875 16.984375 47.65625 
Q 21.875 52.34375 27.140625 59.5625 
Q 32.421875 66.796875 37.109375 76.953125 
z
M 56.25 76.5625 
Q 60.546875 77.34375 64.453125 78.515625 
Q 65.625 73.4375 68.546875 67.765625 
Q 71.484375 62.109375 75.78125 56.828125 
Q 80.078125 51.5625 85.15625 47.65625 
Q 90.234375 43.75 95.3125 42.1875 
Q 91.015625 39.453125 87.890625 33.59375 
Q 81.25 38.671875 76.5625 43.359375 
Q 71.875 48.046875 68.9375 51.953125 
Q 66.015625 55.859375 62.296875 62.6875 
Q 58.59375 69.53125 56.25 76.5625 
z
" id="SimHei-20998"/>
     <path d="M 7.421875 65.625 
Q 15.625 65.234375 25 65.234375 
L 37.5 65.234375 
Q 41.40625 73.828125 42.578125 81.640625 
Q 48.046875 79.6875 53.125 78.515625 
Q 51.171875 76.5625 46.09375 65.234375 
L 77.34375 65.234375 
Q 88.28125 65.234375 95.3125 65.625 
L 95.3125 58.203125 
Q 88.28125 58.59375 77.34375 58.59375 
L 42.96875 58.59375 
Q 36.328125 46.484375 30.859375 39.84375 
L 50.390625 39.84375 
Q 50.390625 48.046875 50 53.125 
L 58.203125 53.125 
Q 57.421875 48.046875 57.421875 39.84375 
L 83.984375 39.84375 
Q 83.59375 32.8125 83.59375 25.78125 
L 83.59375 10.546875 
Q 83.59375 2.734375 79.6875 1.171875 
Q 75.78125 -0.390625 68.359375 -1.953125 
Q 67.578125 3.515625 65.234375 7.03125 
Q 73.828125 7.03125 75.1875 8 
Q 76.5625 8.984375 76.5625 14.0625 
L 76.5625 33.203125 
L 57.421875 33.203125 
L 57.421875 7.03125 
Q 57.421875 -1.171875 57.8125 -9.765625 
L 50 -9.765625 
Q 50.390625 -1.171875 50.390625 7.03125 
L 50.390625 33.203125 
L 32.421875 33.203125 
L 32.421875 -1.5625 
L 25 -1.5625 
Q 25.390625 6.640625 25.390625 14.453125 
L 25.390625 33.59375 
Q 19.921875 26.953125 11.71875 19.53125 
Q 8.984375 22.65625 4.6875 25.390625 
Q 12.890625 31.25 20.703125 39.453125 
Q 28.515625 47.65625 34.375 58.59375 
L 25 58.59375 
Q 15.625 58.59375 7.421875 58.203125 
z
" id="SimHei-24067"/>
    </defs>
    <g transform="translate(357.66875 15.207812)scale(0.1 -0.1)">
     <use xlink:href="#SimHei-20225"/>
     <use x="100" xlink:href="#SimHei-19994"/>
     <use x="200" xlink:href="#SimHei-24615"/>
     <use x="300" xlink:href="#SimHei-36136"/>
     <use x="400" xlink:href="#SimHei-20998"/>
     <use x="500" xlink:href="#SimHei-24067"/>
    </g>
   </g>
  </g>
 </g>
 <defs>
  <clipPath id="p64385d5524">
   <rect height="326.16" width="669.6" x="52.86875" y="21.207812"/>
  </clipPath>
 </defs>
</svg>
