<svg width="1653" height="993" xmlns="http://www.w3.org/2000/svg" xmlns:xlink="http://www.w3.org/1999/xlink" overflow="hidden"><defs><filter id="fx0" x="-10%" y="-10%" width="120%" height="120%" filterUnits="userSpaceOnUse" primitiveUnits="userSpaceOnUse"><feComponentTransfer color-interpolation-filters="sRGB"><feFuncR type="discrete" tableValues="0 0"/><feFuncG type="discrete" tableValues="0 0"/><feFuncB type="discrete" tableValues="0 0"/><feFuncA type="linear" slope="0.2" intercept="0"/></feComponentTransfer><feGaussianBlur stdDeviation="7.63889 7.63889"/></filter><filter id="fx1" x="-10%" y="-10%" width="120%" height="120%" filterUnits="userSpaceOnUse" primitiveUnits="userSpaceOnUse"><feComponentTransfer color-interpolation-filters="sRGB"><feFuncR type="discrete" tableValues="0 0"/><feFuncG type="discrete" tableValues="0 0"/><feFuncB type="discrete" tableValues="0 0"/><feFuncA type="linear" slope="0.2" intercept="0"/></feComponentTransfer><feGaussianBlur stdDeviation="7.63889 7.63889"/></filter><filter id="fx2" x="-10%" y="-10%" width="120%" height="120%" filterUnits="userSpaceOnUse" primitiveUnits="userSpaceOnUse"><feComponentTransfer color-interpolation-filters="sRGB"><feFuncR type="discrete" tableValues="0 0"/><feFuncG type="discrete" tableValues="0 0"/><feFuncB type="discrete" tableValues="0 0"/><feFuncA type="linear" slope="0.2" intercept="0"/></feComponentTransfer><feGaussianBlur stdDeviation="7.63889 7.63889"/></filter><filter id="fx3" x="-10%" y="-10%" width="120%" height="120%" filterUnits="userSpaceOnUse" primitiveUnits="userSpaceOnUse"><feComponentTransfer color-interpolation-filters="sRGB"><feFuncR type="discrete" tableValues="0 0"/><feFuncG type="discrete" tableValues="0 0"/><feFuncB type="discrete" tableValues="0 0"/><feFuncA type="linear" slope="0.2" intercept="0"/></feComponentTransfer><feGaussianBlur stdDeviation="7.63889 7.63889"/></filter><filter id="fx4" x="-10%" y="-10%" width="120%" height="120%" filterUnits="userSpaceOnUse" primitiveUnits="userSpaceOnUse"><feComponentTransfer color-interpolation-filters="sRGB"><feFuncR type="discrete" tableValues="0 0"/><feFuncG type="discrete" tableValues="0 0"/><feFuncB type="discrete" tableValues="0 0"/><feFuncA type="linear" slope="0.2" intercept="0"/></feComponentTransfer><feGaussianBlur stdDeviation="7.63889 7.63889"/></filter><filter id="fx5" x="-10%" y="-10%" width="120%" height="120%" filterUnits="userSpaceOnUse" primitiveUnits="userSpaceOnUse"><feComponentTransfer color-interpolation-filters="sRGB"><feFuncR type="discrete" tableValues="0 0"/><feFuncG type="discrete" tableValues="0 0"/><feFuncB type="discrete" tableValues="0 0"/><feFuncA type="linear" slope="0.2" intercept="0"/></feComponentTransfer><feGaussianBlur stdDeviation="7.63889 7.63889"/></filter><filter id="fx6" x="-10%" y="-10%" width="120%" height="120%" filterUnits="userSpaceOnUse" primitiveUnits="userSpaceOnUse"><feComponentTransfer color-interpolation-filters="sRGB"><feFuncR type="discrete" tableValues="0 0"/><feFuncG type="discrete" tableValues="0 0"/><feFuncB type="discrete" tableValues="0 0"/><feFuncA type="linear" slope="0.2" intercept="0"/></feComponentTransfer><feGaussianBlur stdDeviation="7.63889 7.63889"/></filter><filter id="fx7" x="-10%" y="-10%" width="120%" height="120%" filterUnits="userSpaceOnUse" primitiveUnits="userSpaceOnUse"><feComponentTransfer color-interpolation-filters="sRGB"><feFuncR type="discrete" tableValues="0 0"/><feFuncG type="discrete" tableValues="0 0"/><feFuncB type="discrete" tableValues="0 0"/><feFuncA type="linear" slope="0.2" intercept="0"/></feComponentTransfer><feGaussianBlur stdDeviation="7.63889 7.63889"/></filter><filter id="fx8" x="-10%" y="-10%" width="120%" height="120%" filterUnits="userSpaceOnUse" primitiveUnits="userSpaceOnUse"><feComponentTransfer color-interpolation-filters="sRGB"><feFuncR type="discrete" tableValues="0 0"/><feFuncG type="discrete" tableValues="0 0"/><feFuncB type="discrete" tableValues="0 0"/><feFuncA type="linear" slope="0.2" intercept="0"/></feComponentTransfer><feGaussianBlur stdDeviation="7.63889 7.63889"/></filter><filter id="fx9" x="-10%" y="-10%" width="120%" height="120%" filterUnits="userSpaceOnUse" primitiveUnits="userSpaceOnUse"><feComponentTransfer color-interpolation-filters="sRGB"><feFuncR type="discrete" tableValues="0 0"/><feFuncG type="discrete" tableValues="0 0"/><feFuncB type="discrete" tableValues="0 0"/><feFuncA type="linear" slope="0.2" intercept="0"/></feComponentTransfer><feGaussianBlur stdDeviation="7.63889 7.63889"/></filter><filter id="fx10" x="-10%" y="-10%" width="120%" height="120%" filterUnits="userSpaceOnUse" primitiveUnits="userSpaceOnUse"><feComponentTransfer color-interpolation-filters="sRGB"><feFuncR type="discrete" tableValues="0 0"/><feFuncG type="discrete" tableValues="0 0"/><feFuncB type="discrete" tableValues="0 0"/><feFuncA type="linear" slope="0.2" intercept="0"/></feComponentTransfer><feGaussianBlur stdDeviation="7.63889 7.63889"/></filter><filter id="fx11" x="-10%" y="-10%" width="120%" height="120%" filterUnits="userSpaceOnUse" primitiveUnits="userSpaceOnUse"><feComponentTransfer color-interpolation-filters="sRGB"><feFuncR type="discrete" tableValues="0 0"/><feFuncG type="discrete" tableValues="0 0"/><feFuncB type="discrete" tableValues="0 0"/><feFuncA type="linear" slope="0.2" intercept="0"/></feComponentTransfer><feGaussianBlur stdDeviation="7.63889 7.63889"/></filter><filter id="fx12" x="-10%" y="-10%" width="120%" height="120%" filterUnits="userSpaceOnUse" primitiveUnits="userSpaceOnUse"><feComponentTransfer color-interpolation-filters="sRGB"><feFuncR type="discrete" tableValues="0 0"/><feFuncG type="discrete" tableValues="0 0"/><feFuncB type="discrete" tableValues="0 0"/><feFuncA type="linear" slope="0.2" intercept="0"/></feComponentTransfer><feGaussianBlur stdDeviation="7.63889 7.63889"/></filter><filter id="fx13" x="-10%" y="-10%" width="120%" height="120%" filterUnits="userSpaceOnUse" primitiveUnits="userSpaceOnUse"><feComponentTransfer color-interpolation-filters="sRGB"><feFuncR type="discrete" tableValues="0 0"/><feFuncG type="discrete" tableValues="0 0"/><feFuncB type="discrete" tableValues="0 0"/><feFuncA type="linear" slope="0.2" intercept="0"/></feComponentTransfer><feGaussianBlur stdDeviation="7.63889 7.63889"/></filter><clipPath id="clip14"><rect x="1528" y="295" width="1653" height="993"/></clipPath><clipPath id="clip15"><rect x="1529" y="295" width="1650" height="990"/></clipPath><clipPath id="clip16"><rect x="-7" y="-7" width="75" height="393"/></clipPath><clipPath id="clip17"><rect x="0" y="0" width="61" height="380"/></clipPath><clipPath id="clip18"><rect x="1529" y="295" width="1650" height="990"/></clipPath><clipPath id="clip19"><rect x="-7" y="-7" width="255" height="393"/></clipPath><clipPath id="clip20"><rect x="0" y="0" width="243" height="379"/></clipPath><clipPath id="clip21"><rect x="1529" y="295" width="1650" height="990"/></clipPath><clipPath id="clip22"><rect x="-7" y="-7" width="393" height="522"/></clipPath><clipPath id="clip23"><rect x="0" y="0" width="380" height="510"/></clipPath><clipPath id="clip24"><rect x="1529" y="295" width="1650" height="990"/></clipPath><clipPath id="clip25"><rect x="-7" y="-7" width="408" height="393"/></clipPath><clipPath id="clip26"><rect x="0" y="0" width="393" height="380"/></clipPath><clipPath id="clip27"><rect x="1529" y="295" width="1650" height="990"/></clipPath><clipPath id="clip28"><rect x="-7" y="-7" width="393" height="385"/></clipPath><clipPath id="clip29"><rect x="0" y="0" width="378" height="371"/></clipPath><clipPath id="clip30"><rect x="1529" y="295" width="1650" height="990"/></clipPath><clipPath id="clip31"><rect x="-7" y="-7" width="393" height="420"/></clipPath><clipPath id="clip32"><rect x="0" y="0" width="380" height="407"/></clipPath><clipPath id="clip33"><rect x="1529" y="295" width="1650" height="990"/></clipPath><clipPath id="clip34"><rect x="-7" y="-7" width="126" height="389"/></clipPath><clipPath id="clip35"><rect x="0" y="0" width="111" height="376"/></clipPath><clipPath id="clip36"><rect x="1529" y="295" width="1650" height="990"/></clipPath><clipPath id="clip37"><rect x="-7" y="-7" width="114" height="389"/></clipPath><clipPath id="clip38"><rect x="0" y="0" width="99" height="376"/></clipPath><clipPath id="clip39"><rect x="1529" y="295" width="1650" height="990"/></clipPath><clipPath id="clip40"><rect x="-7" y="-7" width="110" height="393"/></clipPath><clipPath id="clip41"><rect x="0" y="0" width="97" height="377"/></clipPath><clipPath id="clip42"><rect x="1529" y="295" width="1650" height="990"/></clipPath><clipPath id="clip43"><rect x="-7" y="-7" width="106" height="393"/></clipPath><clipPath id="clip44"><rect x="0" y="0" width="94" height="377"/></clipPath><clipPath id="clip45"><rect x="1529" y="295" width="1650" height="990"/></clipPath><clipPath id="clip46"><rect x="-7" y="-7" width="106" height="393"/></clipPath><clipPath id="clip47"><rect x="0" y="0" width="91" height="378"/></clipPath><clipPath id="clip48"><rect x="1529" y="295" width="1650" height="990"/></clipPath><clipPath id="clip49"><rect x="-7" y="-7" width="98" height="393"/></clipPath><clipPath id="clip50"><rect x="0" y="0" width="86" height="378"/></clipPath><clipPath id="clip51"><rect x="1529" y="295" width="1650" height="990"/></clipPath><clipPath id="clip52"><rect x="-7" y="-7" width="90" height="393"/></clipPath><clipPath id="clip53"><rect x="0" y="0" width="78" height="380"/></clipPath><clipPath id="clip54"><rect x="1529" y="295" width="1650" height="990"/></clipPath><clipPath id="clip55"><rect x="-7" y="-7" width="63" height="393"/></clipPath><clipPath id="clip56"><rect x="0" y="0" width="51" height="380"/></clipPath><clipPath id="clip57"><rect x="1529" y="295" width="1650" height="990"/></clipPath><clipPath id="clip58"><rect x="1529" y="295" width="1650" height="990"/></clipPath><clipPath id="clip59"><rect x="1529" y="295" width="1650" height="990"/></clipPath><clipPath id="clip60"><rect x="1529" y="295" width="1650" height="990"/></clipPath><clipPath id="clip61"><rect x="1529" y="295" width="1650" height="990"/></clipPath><clipPath id="clip62"><rect x="1529" y="295" width="1650" height="990"/></clipPath><clipPath id="clip63"><rect x="1529" y="295" width="1650" height="990"/></clipPath><clipPath id="clip64"><rect x="1529" y="295" width="1650" height="990"/></clipPath><clipPath id="clip65"><rect x="1529" y="295" width="1650" height="990"/></clipPath><clipPath id="clip66"><rect x="1529" y="295" width="1650" height="990"/></clipPath><clipPath id="clip67"><rect x="1529" y="295" width="1650" height="990"/></clipPath><clipPath id="clip68"><rect x="1529" y="295" width="1650" height="990"/></clipPath><clipPath id="clip69"><rect x="1529" y="295" width="1650" height="990"/></clipPath><clipPath id="clip70"><rect x="1529" y="295" width="1650" height="990"/></clipPath><clipPath id="clip71"><rect x="1529" y="295" width="1650" height="990"/></clipPath><clipPath id="clip72"><rect x="1529" y="295" width="1650" height="990"/></clipPath><clipPath id="clip73"><rect x="2708" y="319" width="145" height="128"/></clipPath><clipPath id="clip74"><rect x="1529" y="295" width="1650" height="990"/></clipPath><clipPath id="clip75"><rect x="2708" y="319" width="145" height="128"/></clipPath><clipPath id="clip76"><rect x="1529" y="295" width="1650" height="990"/></clipPath><clipPath id="clip77"><rect x="2708" y="319" width="145" height="128"/></clipPath><clipPath id="clip78"><rect x="1529" y="295" width="1650" height="990"/></clipPath><clipPath id="clip79"><rect x="1529" y="295" width="1650" height="990"/></clipPath><clipPath id="clip80"><rect x="2598" y="433" width="145" height="127"/></clipPath><clipPath id="clip81"><rect x="1529" y="295" width="1650" height="990"/></clipPath><clipPath id="clip82"><rect x="2598" y="433" width="145" height="127"/></clipPath><clipPath id="clip83"><rect x="1529" y="295" width="1650" height="990"/></clipPath><clipPath id="clip84"><rect x="1529" y="295" width="1650" height="990"/></clipPath><clipPath id="clip85"><rect x="2384" y="763" width="169" height="127"/></clipPath><clipPath id="clip86"><rect x="1529" y="295" width="1650" height="990"/></clipPath><clipPath id="clip87"><rect x="2384" y="763" width="169" height="127"/></clipPath><clipPath id="clip88"><rect x="1529" y="295" width="1650" height="990"/></clipPath><clipPath id="clip89"><rect x="1529" y="295" width="1650" height="990"/></clipPath><clipPath id="clip90"><rect x="2247" y="996" width="169" height="128"/></clipPath><clipPath id="clip91"><rect x="1529" y="295" width="1650" height="990"/></clipPath><clipPath id="clip92"><rect x="2247" y="996" width="169" height="128"/></clipPath><clipPath id="clip93"><rect x="1529" y="295" width="1650" height="990"/></clipPath><clipPath id="clip94"><rect x="2247" y="996" width="169" height="128"/></clipPath><clipPath id="clip95"><rect x="1529" y="295" width="1650" height="990"/></clipPath><clipPath id="clip96"><rect x="1529" y="295" width="1650" height="990"/></clipPath><clipPath id="clip97"><rect x="2013" y="917" width="169" height="128"/></clipPath><clipPath id="clip98"><rect x="1529" y="295" width="1650" height="990"/></clipPath><clipPath id="clip99"><rect x="2013" y="917" width="169" height="128"/></clipPath><clipPath id="clip100"><rect x="1529" y="295" width="1650" height="990"/></clipPath><clipPath id="clip101"><rect x="1529" y="295" width="1650" height="990"/></clipPath><clipPath id="clip102"><rect x="2003" y="684" width="169" height="127"/></clipPath><clipPath id="clip103"><rect x="1529" y="295" width="1650" height="990"/></clipPath><clipPath id="clip104"><rect x="2003" y="684" width="169" height="127"/></clipPath><clipPath id="clip105"><rect x="1529" y="295" width="1650" height="990"/></clipPath><clipPath id="clip106"><rect x="1529" y="295" width="1650" height="990"/></clipPath><clipPath id="clip107"><rect x="1625" y="446" width="145" height="128"/></clipPath><clipPath id="clip108"><rect x="1529" y="295" width="1650" height="990"/></clipPath><clipPath id="clip109"><rect x="1625" y="446" width="145" height="128"/></clipPath><clipPath id="clip110"><rect x="1529" y="295" width="1650" height="990"/></clipPath><clipPath id="clip111"><rect x="1529" y="295" width="1650" height="990"/></clipPath><clipPath id="clip112"><rect x="1944" y="443" width="146" height="128"/></clipPath><clipPath id="clip113"><rect x="1529" y="295" width="1650" height="990"/></clipPath><clipPath id="clip114"><rect x="1944" y="443" width="146" height="128"/></clipPath><clipPath id="clip115"><rect x="1529" y="295" width="1650" height="990"/></clipPath><clipPath id="clip116"><rect x="1529" y="295" width="1650" height="990"/></clipPath><clipPath id="clip117"><rect x="1786" y="319" width="146" height="128"/></clipPath><clipPath id="clip118"><rect x="1529" y="295" width="1650" height="990"/></clipPath><clipPath id="clip119"><rect x="1786" y="319" width="146" height="128"/></clipPath><clipPath id="clip120"><rect x="1529" y="295" width="1650" height="990"/></clipPath><clipPath id="clip121"><rect x="1786" y="319" width="146" height="128"/></clipPath><clipPath id="clip122"><rect x="1529" y="295" width="1650" height="990"/></clipPath><clipPath id="clip123"><rect x="1529" y="295" width="1650" height="990"/></clipPath><clipPath id="clip124"><rect x="1923" y="332" width="145" height="128"/></clipPath><clipPath id="clip125"><rect x="1529" y="295" width="1650" height="990"/></clipPath><clipPath id="clip126"><rect x="1923" y="332" width="145" height="128"/></clipPath><clipPath id="clip127"><rect x="1529" y="295" width="1650" height="990"/></clipPath><clipPath id="clip128"><rect x="1529" y="295" width="1650" height="990"/></clipPath><clipPath id="clip129"><rect x="2090" y="328" width="145" height="128"/></clipPath><clipPath id="clip130"><rect x="1529" y="295" width="1650" height="990"/></clipPath><clipPath id="clip131"><rect x="2090" y="328" width="145" height="128"/></clipPath><clipPath id="clip132"><rect x="1529" y="295" width="1650" height="990"/></clipPath><clipPath id="clip133"><rect x="2090" y="328" width="145" height="128"/></clipPath><clipPath id="clip134"><rect x="1529" y="295" width="1650" height="990"/></clipPath><clipPath id="clip135"><rect x="1529" y="295" width="1650" height="990"/></clipPath><clipPath id="clip136"><rect x="2144" y="398" width="145" height="128"/></clipPath><clipPath id="clip137"><rect x="1529" y="295" width="1650" height="990"/></clipPath><clipPath id="clip138"><rect x="2144" y="398" width="145" height="128"/></clipPath><clipPath id="clip139"><rect x="1529" y="295" width="1650" height="990"/></clipPath><clipPath id="clip140"><rect x="1529" y="295" width="1650" height="990"/></clipPath><clipPath id="clip141"><rect x="2252" y="363" width="145" height="128"/></clipPath><clipPath id="clip142"><rect x="1529" y="295" width="1650" height="990"/></clipPath><clipPath id="clip143"><rect x="2252" y="363" width="145" height="128"/></clipPath><clipPath id="clip144"><rect x="1529" y="295" width="1650" height="990"/></clipPath><clipPath id="clip145"><rect x="1529" y="295" width="1650" height="990"/></clipPath><clipPath id="clip146"><rect x="2474" y="378" width="145" height="127"/></clipPath><clipPath id="clip147"><rect x="1529" y="295" width="1650" height="990"/></clipPath><clipPath id="clip148"><rect x="2474" y="378" width="145" height="127"/></clipPath><clipPath id="clip149"><rect x="1529" y="295" width="1650" height="990"/></clipPath><clipPath id="clip150"><rect x="1529" y="295" width="1650" height="990"/></clipPath><clipPath id="clip151"><rect x="1529" y="295" width="1650" height="990"/></clipPath><clipPath id="clip152"><rect x="1529" y="295" width="1650" height="990"/></clipPath><clipPath id="clip153"><rect x="1529" y="295" width="1650" height="990"/></clipPath><clipPath id="clip154"><rect x="1529" y="295" width="1650" height="990"/></clipPath><clipPath id="clip155"><rect x="1529" y="295" width="1650" height="990"/></clipPath><clipPath id="clip156"><rect x="1529" y="295" width="1650" height="990"/></clipPath><clipPath id="clip157"><rect x="1529" y="295" width="1650" height="990"/></clipPath><clipPath id="clip158"><rect x="1529" y="295" width="1650" height="990"/></clipPath><clipPath id="clip159"><rect x="1529" y="295" width="1650" height="990"/></clipPath><clipPath id="clip160"><rect x="1529" y="295" width="1650" height="990"/></clipPath><clipPath id="clip161"><rect x="1529" y="295" width="1650" height="990"/></clipPath><clipPath id="clip162"><rect x="1529" y="295" width="1650" height="990"/></clipPath><clipPath id="clip163"><rect x="1529" y="295" width="1650" height="990"/></clipPath><clipPath id="clip164"><rect x="1529" y="295" width="1650" height="990"/></clipPath><clipPath id="clip165"><rect x="1529" y="295" width="1650" height="990"/></clipPath><clipPath id="clip166"><rect x="1529" y="295" width="1650" height="990"/></clipPath><clipPath id="clip167"><rect x="1529" y="295" width="1650" height="990"/></clipPath><clipPath id="clip168"><rect x="1529" y="295" width="1650" height="990"/></clipPath><clipPath id="clip169"><rect x="1529" y="295" width="1650" height="990"/></clipPath></defs><g clip-path="url(#clip14)" transform="translate(-1528 -295)"><rect x="1529" y="296" width="1650" height="990" fill="#FFFFFF"/><g clip-path="url(#clip15)"><g clip-path="url(#clip16)" filter="url(#fx0)" transform="translate(2236 503)"><g clip-path="url(#clip17)"><path d="M23.7893 24.2514C28.3462 24.2514 32.9026 24.3452 37.4556 24.5328L23.7893 356.261Z" fill="#4F81BD" fill-rule="evenodd"/></g></g></g><g clip-path="url(#clip18)"><g clip-path="url(#clip19)" filter="url(#fx1)" transform="translate(2234 504)"><g clip-path="url(#clip20)"><path d="M37.6825 23.5297C102.798 26.2123 165.684 47.9993 218.502 86.1752L24.0165 355.258Z" fill="#C0504D" fill-rule="evenodd"/></g></g></g><g clip-path="url(#clip21)"><g clip-path="url(#clip22)" filter="url(#fx2)" transform="translate(2233 564)"><g clip-path="url(#clip23)"><path d="M218.154 23.6712C366.116 130.614 399.974 336.955 293.947 485.575L23.6681 292.754Z" fill="#9BBB59" fill-rule="evenodd"/></g></g></g><g clip-path="url(#clip24)"><g clip-path="url(#clip25)" filter="url(#fx3)" transform="translate(2159 829)"><g clip-path="url(#clip26)"><path d="M369.283 216.571C291.33 325.838 155.255 377.42 24.4588 347.283L99.0043 23.7509Z" fill="#8064A2" fill-rule="evenodd"/></g></g></g><g clip-path="url(#clip27)"><g clip-path="url(#clip28)" filter="url(#fx4)" transform="translate(1909 829)"><g clip-path="url(#clip29)"><path d="M279.616 347.367C141.023 315.434 38.1628 198.772 23.8399 57.2697L354.162 23.8342Z" fill="#4BACC6" fill-rule="evenodd"/></g></g></g><g clip-path="url(#clip30)"><g clip-path="url(#clip31)" filter="url(#fx5)" transform="translate(1907 509)"><g clip-path="url(#clip32)"><path d="M25.8565 383.311C8.53624 212.197 124.758 56.1834 293.67 23.8029L356.178 349.875Z" fill="#F79646" fill-rule="evenodd"/></g></g></g><g clip-path="url(#clip33)"><g clip-path="url(#clip34)" filter="url(#fx6)" transform="translate(2174 507)"><g clip-path="url(#clip35)"><path d="M24.028 26.1489C27.6083 25.4626 31.1997 24.8352 34.8006 24.2672L86.5361 352.221Z" fill="#2C4D75" fill-rule="evenodd"/></g></g></g><g clip-path="url(#clip36)"><g clip-path="url(#clip37)" filter="url(#fx7)" transform="translate(2185 507)"><g clip-path="url(#clip38)"><path d="M23.6953 24.2714C24.5955 24.1294 25.4963 23.9911 26.3976 23.8565L75.4305 352.225Z" fill="#772C2A" fill-rule="evenodd"/></g></g></g><g clip-path="url(#clip39)"><g clip-path="url(#clip40)" filter="url(#fx8)" transform="translate(2187 506)"><g clip-path="url(#clip41)"><path d="M24.3708 24.8599C25.2721 24.7253 26.174 24.5944 27.0765 24.4673L73.4039 353.229Z" fill="#5F7530" fill-rule="evenodd"/></g></g></g><g clip-path="url(#clip42)"><g clip-path="url(#clip43)" filter="url(#fx9)" transform="translate(2190 506)"><g clip-path="url(#clip44)"><path d="M24.05 24.4714C24.9525 24.3442 25.8555 24.2208 26.7589 24.1011L70.3774 353.233Z" fill="#4D3B62" fill-rule="evenodd"/></g></g></g><g clip-path="url(#clip45)"><g clip-path="url(#clip46)" filter="url(#fx10)" transform="translate(2193 505)"><g clip-path="url(#clip47)"><path d="M23.7329 25.1077C25.5398 24.8682 27.3487 24.6436 29.1592 24.4339L67.351 354.239Z" fill="#276A7C" fill-rule="evenodd"/></g></g></g><g clip-path="url(#clip48)"><g clip-path="url(#clip49)" filter="url(#fx11)" transform="translate(2198 505)"><g clip-path="url(#clip50)"><path d="M24.1057 24.442C26.8217 24.1275 29.5414 23.8465 32.2643 23.5992L62.2977 354.248Z" fill="#B65708" fill-rule="evenodd"/></g></g></g><g clip-path="url(#clip51)"><g clip-path="url(#clip52)" filter="url(#fx12)" transform="translate(2206 503)"><g clip-path="url(#clip53)"><path d="M24.1843 25.6121C33.2617 24.7876 42.3692 24.3373 51.4837 24.2622L54.2177 356.261Z" fill="#729ACA" fill-rule="evenodd"/></g></g></g><g clip-path="url(#clip54)"><g clip-path="url(#clip55)" filter="url(#fx13)" transform="translate(2233 503)"><g clip-path="url(#clip56)"><path d="M24.216 24.263C25.1273 24.2555 26.0387 24.2518 26.9501 24.2518L26.9501 356.261Z" fill="#CD7371" fill-rule="evenodd"/></g></g></g><g clip-path="url(#clip57)"><path d="M2259.92 530.506C2264.39 530.506 2268.86 530.598 2273.32 530.782L2259.92 856.006Z" fill="#4F81BD" fill-rule="evenodd"/></g><g clip-path="url(#clip58)"><path d="M2273.32 530.782C2337.16 533.412 2398.81 554.772 2450.6 592.199L2259.92 856.006Z" fill="#C0504D" fill-rule="evenodd"/></g><g clip-path="url(#clip59)"><path d="M2450.6 592.2C2595.66 697.046 2628.85 899.341 2524.9 1045.05L2259.92 856.006Z" fill="#9BBB59" fill-rule="evenodd"/></g><g clip-path="url(#clip60)"><path d="M2524.9 1045.05C2448.48 1152.17 2315.07 1202.74 2186.84 1173.19L2259.92 856.006Z" fill="#8064A2" fill-rule="evenodd"/></g><g clip-path="url(#clip61)"><path d="M2186.84 1173.2C2050.96 1141.89 1950.12 1027.51 1936.08 888.786L2259.92 856.006Z" fill="#4BACC6" fill-rule="evenodd"/></g><g clip-path="url(#clip62)"><path d="M1936.08 888.786C1919.1 721.027 2033.04 568.073 2198.64 536.328L2259.92 856.006Z" fill="#F79646" fill-rule="evenodd"/></g><g clip-path="url(#clip63)"><path d="M2198.64 536.327C2202.15 535.654 2205.67 535.039 2209.2 534.482L2259.92 856.006Z" fill="#2C4D75" fill-rule="evenodd"/></g><g clip-path="url(#clip64)"><path d="M2209.2 534.483C2210.08 534.343 2210.97 534.208 2211.85 534.076L2259.92 856.006Z" fill="#772C2A" fill-rule="evenodd"/></g><g clip-path="url(#clip65)"><path d="M2211.85 534.075C2212.74 533.943 2213.62 533.815 2214.5 533.69L2259.92 856.006Z" fill="#5F7530" fill-rule="evenodd"/></g><g clip-path="url(#clip66)"><path d="M2214.5 533.691C2215.39 533.566 2216.27 533.445 2217.16 533.328L2259.92 856.006Z" fill="#4D3B62" fill-rule="evenodd"/></g><g clip-path="url(#clip67)"><path d="M2217.16 533.328C2218.93 533.093 2220.71 532.873 2222.48 532.667L2259.92 856.006Z" fill="#276A7C" fill-rule="evenodd"/></g><g clip-path="url(#clip68)"><path d="M2222.48 532.667C2225.14 532.359 2227.81 532.083 2230.48 531.841L2259.92 856.006Z" fill="#B65708" fill-rule="evenodd"/></g><g clip-path="url(#clip69)"><path d="M2230.48 531.841C2239.38 531.032 2248.31 530.591 2257.24 530.517L2259.92 856.006Z" fill="#729ACA" fill-rule="evenodd"/></g><g clip-path="url(#clip70)"><path d="M2257.24 530.518C2258.14 530.51 2259.03 530.507 2259.92 530.507L2259.92 856.006Z" fill="#CD7371" fill-rule="evenodd"/></g><g clip-path="url(#clip71)"><path d="M2708.5 319.5 2732.5 319.5 2732.5 319.5 2768.5 319.5 2852.5 319.5 2852.5 393.583 2852.5 393.583 2852.5 425.333 2852.5 446.5 2768.5 446.5 2732.5 446.5 2732.5 446.5 2708.5 446.5 2708.5 425.333 2267.85 530.628 2708.5 393.583Z" stroke="#4F81BD" stroke-width="3.4375" stroke-linejoin="round" stroke-miterlimit="10" fill="#FFFFFF" fill-rule="evenodd"/></g><g clip-path="url(#clip72)"><g clip-path="url(#clip73)"><text fill="#4F81BD" font-family="Calibri,Calibri_MSFontService,sans-serif" font-weight="700" font-size="46" transform="matrix(1 0 0 1 2759.29 371)">A</text></g></g><g clip-path="url(#clip74)"><g clip-path="url(#clip75)"><text fill="#4F81BD" font-family="Calibri,Calibri_MSFontService,sans-serif" font-weight="700" font-size="46" transform="matrix(1 0 0 1 2787.07 371)">-</text></g></g><g clip-path="url(#clip76)"><g clip-path="url(#clip77)"><text fill="#4F81BD" font-family="Calibri,Calibri_MSFontService,sans-serif" font-weight="700" font-size="46" transform="matrix(1 0 0 1 2722.51 427)">0.66%</text></g></g><g clip-path="url(#clip78)"><path d="M2598.5 433.5 2622.5 433.5 2622.5 433.5 2658.5 433.5 2742.5 433.5 2742.5 507 2742.5 507 2742.5 538.5 2742.5 559.5 2658.5 559.5 2622.5 559.5 2622.5 559.5 2598.5 559.5 2598.5 538.5 2367.33 548.039 2598.5 507Z" stroke="#4F81BD" stroke-width="3.4375" stroke-linejoin="round" stroke-miterlimit="10" fill="#FFFFFF" fill-rule="evenodd"/></g><g clip-path="url(#clip79)"><g clip-path="url(#clip80)"><text fill="#C0504D" font-family="Calibri,Calibri_MSFontService,sans-serif" font-weight="700" font-size="46" transform="matrix(1 0 0 1 2644.89 485)">A+</text></g></g><g clip-path="url(#clip81)"><g clip-path="url(#clip82)"><text fill="#C0504D" font-family="Calibri,Calibri_MSFontService,sans-serif" font-weight="700" font-size="46" transform="matrix(1 0 0 1 2612.51 541)">9.31%</text></g></g><g clip-path="url(#clip83)"><path d="M2384.5 763.5 2482.5 763.5 2482.5 763.5 2524.5 763.5 2552.5 763.5 2552.5 784.5 2581.01 803.404 2552.5 816 2552.5 889.5 2524.5 889.5 2482.5 889.5 2482.5 889.5 2384.5 889.5 2384.5 816 2384.5 784.5 2384.5 784.5Z" stroke="#4F81BD" stroke-width="3.4375" stroke-linejoin="round" stroke-miterlimit="10" fill="#FFFFFF" fill-rule="evenodd"/></g><g clip-path="url(#clip84)"><g clip-path="url(#clip85)"><text fill="#9BBB59" font-family="Calibri,Calibri_MSFontService,sans-serif" font-weight="700" font-size="46" transform="matrix(1 0 0 1 2441.02 815)">AA</text></g></g><g clip-path="url(#clip86)"><g clip-path="url(#clip87)"><text fill="#9BBB59" font-family="Calibri,Calibri_MSFontService,sans-serif" font-weight="700" font-size="46" transform="matrix(1 0 0 1 2399.5 871)">24.90%</text></g></g><g clip-path="url(#clip88)"><path d="M2247.5 996.5 2345.5 996.5 2345.5 996.5 2387.5 996.5 2415.5 996.5 2415.5 1070.58 2415.5 1070.58 2415.5 1102.33 2415.5 1123.5 2387.5 1123.5 2375.57 1160.18 2345.5 1123.5 2247.5 1123.5 2247.5 1102.33 2247.5 1070.58 2247.5 1070.58Z" stroke="#4F81BD" stroke-width="3.4375" stroke-linejoin="round" stroke-miterlimit="10" fill="#FFFFFF" fill-rule="evenodd"/></g><g clip-path="url(#clip89)"><g clip-path="url(#clip90)"><text fill="#8064A2" font-family="Calibri,Calibri_MSFontService,sans-serif" font-weight="700" font-size="46" transform="matrix(1 0 0 1 2296.51 1048)">AA</text></g></g><g clip-path="url(#clip91)"><g clip-path="url(#clip92)"><text fill="#8064A2" font-family="Calibri,Calibri_MSFontService,sans-serif" font-weight="700" font-size="46" transform="matrix(1 0 0 1 2352.06 1048)">-</text></g></g><g clip-path="url(#clip93)"><g clip-path="url(#clip94)"><text fill="#8064A2" font-family="Calibri,Calibri_MSFontService,sans-serif" font-weight="700" font-size="46" transform="matrix(1 0 0 1 2262 1104)">18.74%</text></g></g><g clip-path="url(#clip95)"><path d="M2013.5 917.5 2041.5 917.5 2041.5 917.5 2083.5 917.5 2181.5 917.5 2181.5 991.583 2181.5 991.583 2181.5 1023.33 2181.5 1044.5 2083.5 1044.5 2015.59 1071.13 2041.5 1044.5 2013.5 1044.5 2013.5 1023.33 2013.5 991.583 2013.5 991.583Z" stroke="#4F81BD" stroke-width="3.4375" stroke-linejoin="round" stroke-miterlimit="10" fill="#FFFFFF" fill-rule="evenodd"/></g><g clip-path="url(#clip96)"><g clip-path="url(#clip97)"><text fill="#4BACC6" font-family="Calibri,Calibri_MSFontService,sans-serif" font-weight="700" font-size="46" transform="matrix(1 0 0 1 2058.36 969)">AA+</text></g></g><g clip-path="url(#clip98)"><g clip-path="url(#clip99)"><text fill="#4BACC6" font-family="Calibri,Calibri_MSFontService,sans-serif" font-weight="700" font-size="46" transform="matrix(1 0 0 1 2028.25 1025)">19.79%</text></g></g><g clip-path="url(#clip100)"><path d="M2003.5 684.5 2031.5 684.5 1999.01 662.141 2073.5 684.5 2171.5 684.5 2171.5 705.5 2171.5 705.5 2171.5 737 2171.5 810.5 2073.5 810.5 2031.5 810.5 2031.5 810.5 2003.5 810.5 2003.5 737 2003.5 705.5 2003.5 705.5Z" stroke="#4F81BD" stroke-width="3.4375" stroke-linejoin="round" stroke-miterlimit="10" fill="#FFFFFF" fill-rule="evenodd"/></g><g clip-path="url(#clip101)"><g clip-path="url(#clip102)"><text fill="#F79646" font-family="Calibri,Calibri_MSFontService,sans-serif" font-weight="700" font-size="46" transform="matrix(1 0 0 1 2045.57 736)">AAA</text></g></g><g clip-path="url(#clip103)"><g clip-path="url(#clip104)"><text fill="#F79646" font-family="Calibri,Calibri_MSFontService,sans-serif" font-weight="700" font-size="46" transform="matrix(1 0 0 1 2017.94 792)">23.59%</text></g></g><g clip-path="url(#clip105)"><path d="M1625.5 446.5 1709.5 446.5 1709.5 446.5 1745.5 446.5 1769.5 446.5 1769.5 520.583 2203.13 535.088 1769.5 552.333 1769.5 573.5 1745.5 573.5 1709.5 573.5 1709.5 573.5 1625.5 573.5 1625.5 552.333 1625.5 520.583 1625.5 520.583Z" stroke="#4F81BD" stroke-width="3.4375" stroke-linejoin="round" stroke-miterlimit="10" fill="#FFFFFF" fill-rule="evenodd"/></g><g clip-path="url(#clip106)"><g clip-path="url(#clip107)"><text fill="#2C4D75" font-family="Calibri,Calibri_MSFontService,sans-serif" font-weight="700" font-size="46" transform="matrix(1 0 0 1 1684.55 498)">B</text></g></g><g clip-path="url(#clip108)"><g clip-path="url(#clip109)"><text fill="#2C4D75" font-family="Calibri,Calibri_MSFontService,sans-serif" font-weight="700" font-size="46" transform="matrix(1 0 0 1 1639.7 554)">0.52%</text></g></g><g clip-path="url(#clip110)"><path d="M1944.5 443.5 2029.08 443.5 2029.08 443.5 2065.33 443.5 2089.5 443.5 2089.5 517.583 2211.46 534.442 2089.5 549.333 2089.5 570.5 2065.33 570.5 2029.08 570.5 2029.08 570.5 1944.5 570.5 1944.5 549.333 1944.5 517.583 1944.5 517.583Z" stroke="#4F81BD" stroke-width="3.4375" stroke-linejoin="round" stroke-miterlimit="10" fill="#FFFFFF" fill-rule="evenodd"/></g><g clip-path="url(#clip111)"><g clip-path="url(#clip112)"><text fill="#772C2A" font-family="Calibri,Calibri_MSFontService,sans-serif" font-weight="700" font-size="46" transform="matrix(1 0 0 1 1991.38 495)">BB</text></g></g><g clip-path="url(#clip113)"><g clip-path="url(#clip114)"><text fill="#772C2A" font-family="Calibri,Calibri_MSFontService,sans-serif" font-weight="700" font-size="46" transform="matrix(1 0 0 1 1959.38 551)">0.13%</text></g></g><g clip-path="url(#clip115)"><path d="M1786.5 319.5 1871.08 319.5 1871.08 319.5 1907.33 319.5 1931.5 319.5 1931.5 393.583 2215.06 533.937 1931.5 425.333 1931.5 446.5 1907.33 446.5 1871.08 446.5 1871.08 446.5 1786.5 446.5 1786.5 425.333 1786.5 393.583 1786.5 393.583Z" stroke="#4F81BD" stroke-width="3.4375" stroke-linejoin="round" stroke-miterlimit="10" fill="#FFFFFF" fill-rule="evenodd"/></g><g clip-path="url(#clip116)"><g clip-path="url(#clip117)"><text fill="#5F7530" font-family="Calibri,Calibri_MSFontService,sans-serif" font-weight="700" font-size="46" transform="matrix(1 0 0 1 1826.24 371)">BB</text></g></g><g clip-path="url(#clip118)"><g clip-path="url(#clip119)"><text fill="#5F7530" font-family="Calibri,Calibri_MSFontService,sans-serif" font-weight="700" font-size="46" transform="matrix(1 0 0 1 1877.62 371)">-</text></g></g><g clip-path="url(#clip120)"><g clip-path="url(#clip121)"><text fill="#5F7530" font-family="Calibri,Calibri_MSFontService,sans-serif" font-weight="700" font-size="46" transform="matrix(1 0 0 1 1801.26 427)">0.13%</text></g></g><g clip-path="url(#clip122)"><path d="M1923.5 332.5 2007.5 332.5 2007.5 332.5 2043.5 332.5 2067.5 332.5 2067.5 406.583 2215.64 533.944 2067.5 438.333 2067.5 459.5 2043.5 459.5 2007.5 459.5 2007.5 459.5 1923.5 459.5 1923.5 438.333 1923.5 406.583 1923.5 406.583Z" stroke="#4F81BD" stroke-width="3.4375" stroke-linejoin="round" stroke-miterlimit="10" fill="#FFFFFF" fill-rule="evenodd"/></g><g clip-path="url(#clip123)"><g clip-path="url(#clip124)"><text fill="#4D3B62" font-family="Calibri,Calibri_MSFontService,sans-serif" font-weight="700" font-size="46" transform="matrix(1 0 0 1 1956.77 384)">BBB</text></g></g><g clip-path="url(#clip125)"><g clip-path="url(#clip126)"><text fill="#4D3B62" font-family="Calibri,Calibri_MSFontService,sans-serif" font-weight="700" font-size="46" transform="matrix(1 0 0 1 1937.61 440)">0.13%</text></g></g><g clip-path="url(#clip127)"><path d="M2090.5 328.5 2174.5 328.5 2174.5 328.5 2210.5 328.5 2234.5 328.5 2234.5 402.583 2234.5 402.583 2234.5 434.333 2234.5 455.5 2210.5 455.5 2219.63 532.864 2174.5 455.5 2090.5 455.5 2090.5 434.333 2090.5 402.583 2090.5 402.583Z" stroke="#4F81BD" stroke-width="3.4375" stroke-linejoin="round" stroke-miterlimit="10" fill="#FFFFFF" fill-rule="evenodd"/></g><g clip-path="url(#clip128)"><g clip-path="url(#clip129)"><text fill="#276A7C" font-family="Calibri,Calibri_MSFontService,sans-serif" font-weight="700" font-size="46" transform="matrix(1 0 0 1 2117.05 380)">BBB</text></g></g><g clip-path="url(#clip130)"><g clip-path="url(#clip131)"><text fill="#276A7C" font-family="Calibri,Calibri_MSFontService,sans-serif" font-weight="700" font-size="46" transform="matrix(1 0 0 1 2194.12 380)">-</text></g></g><g clip-path="url(#clip132)"><g clip-path="url(#clip133)"><text fill="#276A7C" font-family="Calibri,Calibri_MSFontService,sans-serif" font-weight="700" font-size="46" transform="matrix(1 0 0 1 2104.91 436)">0.26%</text></g></g><g clip-path="url(#clip134)"><path d="M2144.5 398.5 2228.5 398.5 2228.5 398.5 2264.5 398.5 2288.5 398.5 2288.5 472.583 2288.5 472.583 2288.5 504.333 2288.5 525.5 2264.5 525.5 2226.52 532.132 2228.5 525.5 2144.5 525.5 2144.5 504.333 2144.5 472.583 2144.5 472.583Z" stroke="#4F81BD" stroke-width="3.4375" stroke-linejoin="round" stroke-miterlimit="10" fill="#FFFFFF" fill-rule="evenodd"/></g><g clip-path="url(#clip135)"><g clip-path="url(#clip136)"><text fill="#B65708" font-family="Calibri,Calibri_MSFontService,sans-serif" font-weight="700" font-size="46" transform="matrix(1 0 0 1 2166.51 450)">BBB+</text></g></g><g clip-path="url(#clip137)"><g clip-path="url(#clip138)"><text fill="#B65708" font-family="Calibri,Calibri_MSFontService,sans-serif" font-weight="700" font-size="46" transform="matrix(1 0 0 1 2158.76 506)">0.39%</text></g></g><g clip-path="url(#clip139)"><path d="M2252.5 363.5 2276.5 363.5 2276.5 363.5 2312.5 363.5 2396.5 363.5 2396.5 437.583 2396.5 437.583 2396.5 469.333 2396.5 490.5 2312.5 490.5 2244.34 531.365 2276.5 490.5 2252.5 490.5 2252.5 469.333 2252.5 437.583 2252.5 437.583Z" stroke="#4F81BD" stroke-width="3.4375" stroke-linejoin="round" stroke-miterlimit="10" fill="#FFFFFF" fill-rule="evenodd"/></g><g clip-path="url(#clip140)"><g clip-path="url(#clip141)"><text fill="#729ACA" font-family="Calibri,Calibri_MSFontService,sans-serif" font-weight="700" font-size="46" transform="matrix(1 0 0 1 2312.03 415)">C</text></g></g><g clip-path="url(#clip142)"><g clip-path="url(#clip143)"><text fill="#729ACA" font-family="Calibri,Calibri_MSFontService,sans-serif" font-weight="700" font-size="46" transform="matrix(1 0 0 1 2266.47 471)">1.31%</text></g></g><g clip-path="url(#clip144)"><path d="M2474.5 378.5 2498.5 378.5 2498.5 378.5 2534.5 378.5 2618.5 378.5 2618.5 452 2618.5 452 2618.5 483.5 2618.5 504.5 2534.5 504.5 2498.5 504.5 2498.5 504.5 2474.5 504.5 2474.5 483.5 2259.16 529.856 2474.5 452Z" stroke="#4F81BD" stroke-width="3.4375" stroke-linejoin="round" stroke-miterlimit="10" fill="#FFFFFF" fill-rule="evenodd"/></g><g clip-path="url(#clip145)"><g clip-path="url(#clip146)"><text fill="#CD7371" font-family="Calibri,Calibri_MSFontService,sans-serif" font-weight="700" font-size="46" transform="matrix(1 0 0 1 2510.05 430)">CCC</text></g></g><g clip-path="url(#clip147)"><g clip-path="url(#clip148)"><text fill="#CD7371" font-family="Calibri,Calibri_MSFontService,sans-serif" font-weight="700" font-size="46" transform="matrix(1 0 0 1 2488.76 486)">0.13%</text></g></g><g clip-path="url(#clip149)"><text fill="#595959" font-family="Calibri,Calibri_MSFontService,sans-serif" font-weight="700" font-size="73" transform="matrix(1 0 0 1 2238.56 400)">RATING</text></g><g clip-path="url(#clip150)"><rect x="3012" y="497" width="23" height="22" fill="#4F81BD"/></g><g clip-path="url(#clip151)"><text fill="#595959" font-family="Calibri,Calibri_MSFontService,sans-serif" font-weight="400" font-size="41" transform="matrix(1 0 0 1 3044.75 520)">A-</text></g><g clip-path="url(#clip152)"><rect x="3012" y="574" width="23" height="23.0001" fill="#C0504D"/></g><g clip-path="url(#clip153)"><text fill="#595959" font-family="Calibri,Calibri_MSFontService,sans-serif" font-weight="400" font-size="41" transform="matrix(1 0 0 1 3044.75 597)">A+</text></g><g clip-path="url(#clip154)"><rect x="3012" y="651" width="23" height="23.0001" fill="#9BBB59"/></g><g clip-path="url(#clip155)"><text fill="#595959" font-family="Calibri,Calibri_MSFontService,sans-serif" font-weight="400" font-size="41" transform="matrix(1 0 0 1 3044.75 674)">AA</text></g><g clip-path="url(#clip156)"><rect x="3012" y="729" width="23" height="22" fill="#8064A2"/></g><g clip-path="url(#clip157)"><text fill="#595959" font-family="Calibri,Calibri_MSFontService,sans-serif" font-weight="400" font-size="41" transform="matrix(1 0 0 1 3044.75 752)">AA-</text></g><g clip-path="url(#clip158)"><rect x="3012" y="806" width="23" height="23.0001" fill="#4BACC6"/></g><g clip-path="url(#clip159)"><text fill="#595959" font-family="Calibri,Calibri_MSFontService,sans-serif" font-weight="400" font-size="41" transform="matrix(1 0 0 1 3044.75 829)">AA+</text></g><g clip-path="url(#clip160)"><rect x="3012" y="883" width="23" height="23.0001" fill="#F79646"/></g><g clip-path="url(#clip161)"><text fill="#595959" font-family="Calibri,Calibri_MSFontService,sans-serif" font-weight="400" font-size="41" transform="matrix(1 0 0 1 3044.75 906)">AAA</text></g><g clip-path="url(#clip162)"><rect x="3012" y="961" width="23" height="22" fill="#2C4D75"/></g><g clip-path="url(#clip163)"><text fill="#595959" font-family="Calibri,Calibri_MSFontService,sans-serif" font-weight="400" font-size="41" transform="matrix(1 0 0 1 3044.75 984)">B</text></g><g clip-path="url(#clip164)"><rect x="3012" y="1038" width="23" height="23" fill="#772C2A"/></g><g clip-path="url(#clip165)"><text fill="#595959" font-family="Calibri,Calibri_MSFontService,sans-serif" font-weight="400" font-size="41" transform="matrix(1 0 0 1 3044.75 1061)">BB</text></g><g clip-path="url(#clip166)"><rect x="3012" y="1115" width="23" height="23" fill="#5F7530"/></g><g clip-path="url(#clip167)"><text fill="#595959" font-family="Calibri,Calibri_MSFontService,sans-serif" font-weight="400" font-size="41" transform="matrix(1 0 0 1 3044.75 1138)">BB-</text></g><g clip-path="url(#clip168)"><rect x="3012" y="1193" width="23" height="22" fill="#4D3B62"/></g><g clip-path="url(#clip169)"><text fill="#595959" font-family="Calibri,Calibri_MSFontService,sans-serif" font-weight="400" font-size="41" transform="matrix(1 0 0 1 3044.75 1216)">BBB</text></g><rect x="1529.5" y="296.5" width="1650" height="990" stroke="#D9D9D9" stroke-width="3.4375" stroke-linejoin="round" stroke-miterlimit="10" fill="none"/></g></svg>